<svg xmlns="http://www.w3.org/2000/svg" data-name="Слой 1" viewBox="0 0 100 125" x="0px" y="0px"><title>Безымянный-2-01-01-01-01-01-01-01-01-01-01-01-01-01-01-01-01-01-01</title><g><path d="M70.599,23.07723c1.10315-1.36016,2.22389-2.7307,3.331-4.11215,0.49761-.62094.93866-1.28976,1.46567-1.8833a1.1228,1.1228,0,0,1,.845-0.4135,1.21921,1.21921,0,0,1,.60271.88374,22.93414,22.93414,0,0,1-.34624,4.73591,32.34522,32.34522,0,0,1-3.854,9.334c-1.01582,1.651-2.01675,3.3117-3.062,4.944a2.27534,2.27534,0,0,0,.1251,2.56341c0.60763-.48283,1.19359-0.89365,1.71651-1.37324A21.06259,21.06259,0,0,1,79.84524,32.834a13.96407,13.96407,0,0,1,4.5213-.72952c3.50106,0.20044,5.60162,2.4452,6.98328,5.47893a14.47155,14.47155,0,0,1,.5459,1.37619c0.20794,0.61741.17043,0.66128-.72879,1.21366a3.06174,3.06174,0,0,1-.51965-0.47772,5.81111,5.81111,0,0,0-5.07291-2.33381,4.94638,4.94638,0,0,0-2.92312.85565c-2.34618,1.83227-4.55985,3.8399-6.76442,5.846a16.50323,16.50323,0,0,0-3.62506,5.40251,4.954,4.954,0,0,0-.31481,1.7489,15.07383,15.07383,0,0,1-3.15047,8.97939,5.1841,5.1841,0,0,0-.39994.67848,2.15625,2.15625,0,0,1,.90674.60384,1.94721,1.94721,0,0,1-.23256,1.10069c-0.46107,1.25232-.94834,2.495-1.43314,3.76089a1.57792,1.57792,0,0,0,.40521.2763c2.33569,0.53212,3.34327,2.21979,3.03625,4.62576a58.61209,58.61209,0,0,1-2.28565,9.2277C68.03467,83.026,67.64811,85.6969,67.141,88.32641c-0.31006,1.60788-.5547,3.22922-0.79161,4.84994a8.36357,8.36357,0,0,0-.10189,1.91918,1.30243,1.30243,0,0,1-.99836,1.58435,41.049,41.049,0,0,1-4.60693,1.1584,70.944,70.944,0,0,1-13.69548.47539,73.62074,73.62074,0,0,1-7.959-1.02347c-1.19255-.18644-1.26723-0.529-1.37581-1.84636a39.97646,39.97646,0,0,0-.64321-4.56737c-0.86712-4.32413-1.75083-8.64612-2.72244-12.94762C33.746,75.71372,33.02193,73.55,32.44419,71.35113a2.8749,2.8749,0,0,1,.9375-2.67531,10.80693,10.80693,0,0,1,1.14683-.9699c-0.62063-1.18127-1.21619-2.37077-1.868-3.52863a1.32144,1.32144,0,0,1-.27675-1.49118,1.12962,1.12962,0,0,0-.27824-0.90963,12.23872,12.23872,0,0,1-1.96912-4.76967c-0.65906-2.38564-1.57834-4.69954-2.3937-7.04156A1.77159,1.77159,0,0,0,27.4579,49.442c-3.88151-4.80231-8.22583-7.31772-14.2502-5.77369-1.33817.343-2.74405,0.41918-4.11667,0.63162a0.82413,0.82413,0,0,1-1.07368-.54282,1.34761,1.34761,0,0,1,.29311-1.03848,12.73464,12.73464,0,0,1,11.63225-4.26505,18.03875,18.03875,0,0,1,6.352,2.41983,57.17549,57.17549,0,0,1,10.66877,7.84421c0.84309,0.75417,1.56805,1.6404,2.4371,2.56111a2.87691,2.87691,0,0,0-.00208-0.73707q-1.60129-5.27258-3.22971-10.5369a7.85661,7.85661,0,0,0-.50664-1.40056,1.26307,1.26307,0,0,0-.71529-0.6451c-2.82826-.45564-4.73221-2.39709-6.77473-4.12536-3.59137-3.03887-4.55878-7.05131-3.87252-11.448a7.74072,7.74072,0,0,1,3.63921-5.89063,1.41355,1.41355,0,0,0,.56736-0.77562,2.95983,2.95983,0,0,1,1.7614-1.91114,2.779,2.779,0,0,1,1.40117-.14908c0.63487,0.07952,1.24354.369,1.87839,0.4474a20.28516,20.28516,0,0,0,2.20942.03532,18.32049,18.32049,0,0,0,.41517-1.91526c0.34053-3.159.64732-6.32166,0.96711-9.48291a2.22,2.22,0,0,1,.10554-0.73171,0.9212,0.9212,0,0,1,.50851-0.43973,0.57927,0.57927,0,0,1,.48389.25653,9.41082,9.41082,0,0,1,.44883,1.09616c0.5866,1.46753,1.1745,2.93452,1.79221,4.47736a8.6253,8.6253,0,0,1,1.7378-2.1129A7.59566,7.59566,0,0,1,44.76684,4.814c0.583-2.15962,2.59956-1.93137,4.29322-2.19442a2.24655,2.24655,0,0,1,1.35462.71547,3.60331,3.60331,0,0,1,.59843,1.02965c0.2447-.05239.43215-0.09812,0.62171-0.13221,1.86008-.33463,3.04378.163,3.73684,1.88735,0.66289,1.64926,1.09539,3.39264,1.59854,5.10365,0.15273,0.51941.20366,1.06877,0.3415,1.82556,0.4278-.70917.73682-1.29133,1.11123-1.82786a2.37179,2.37179,0,0,1,3.06546-1.1057,3.51509,3.51509,0,0,0,2.2325-.11852,5.99654,5.99654,0,0,0,3.04225-2.40271c1.52982-1.95036,3.2723-3.73414,4.931-5.583,0.27285-.30412.64311-0.64831,0.99994-0.27668a1.27261,1.27261,0,0,1,.21008,1.04828c-0.54832,1.9621-1.222,3.8902-1.738,5.86-0.56152,2.14358-.99886,4.31978-1.4821,6.48359a0.74179,0.74179,0,0,0,.02314.43371c0.95538,2.14492.509,4.411,0.58769,6.63127,0.00872,0.24632.04348,0.4921,0.07671,0.73669A0.79747,0.79747,0,0,0,70.599,23.07723ZM44.73239,73.45867q-0.55385-1.60732-1.10847-3.21436a2.14786,2.14786,0,0,0-1.18736-1.44716l-0.03232,4.08607a7.11026,7.11026,0,0,0,.87917.31171c0.4811,0.11079.97432,0.16894,1.46286,0.24913a2.97845,2.97845,0,0,0,2.16574.54876l0.4166-4.22117a11.63557,11.63557,0,0,0-1.32585,2.49747C45.75241,72.84605,45.62913,73.56816,44.73239,73.45867Zm20.67988,9.16288A5.14075,5.14075,0,0,0,63.799,84.9494a2.09483,2.09483,0,0,1-3.84673.08845,4.13474,4.13474,0,0,0-.55185-0.69509c-1.11919-1.151-1.90365-1.16884-3.04915-.06867-0.35861.34442-.6747,0.73384-1.04013,1.07022a3.45911,3.45911,0,0,1-4.85272-.57268c-0.78314-1.17053-1.32474-1.33318-2.60258-.69088-0.57478.2889-1.0881,0.69741-1.65058,1.01383-2.15121,1.21015-4.1575.99854-5.13334-1.43458-0.56984-1.42079-1.07119-1.50659-2.4132-.72649a8.31262,8.31262,0,0,0-.96281.69437,1.65849,1.65849,0,0,0-.5671,1.96547c0.44456,1.67586.74472,3.393,1.04418,5.10361,0.35233,2.01288.32456,2.0174,2.41443,2.49221,0.09661,0.02195.18733,0.071,0.2842,0.0905a48.22107,48.22107,0,0,0,13.77306,1.0134c1.48326-.13006,2.98681-0.13967,4.44645-0.39914a17.11657,17.11657,0,0,0,4.86362-1.11966,2.14523,2.14523,0,0,0,1.40191-1.6868c0.34235-1.95543.61966-3.93116,1.12271-5.84628C66.794,84.04312,66.67647,83.22508,65.41226,82.62154ZM11.03391,42.34768c1.42811-.13923,2.85415-0.30667,4.2848-0.41122a13.05121,13.05121,0,0,1,6.54307,1.00218A18.91533,18.91533,0,0,1,26.24326,46.228c3.25423,2.82529,4.62306,6.68029,5.74241,10.588a21.7292,21.7292,0,0,0,2.81915,6.1871,17.19,17.19,0,0,0,1.812,1.96823c0.85337-1.49238-.28565-3.295,1.25976-4.59637,1.27531,1.61423,1.37,3.54714,1.91055,5.29012,0.54822,1.76755.9419,3.583,1.40327,5.3775L41.518,70.998l0.036-4.55664c2.352,0.59366,2.50372,2.80708,3.70229,4.15246a6.48887,6.48887,0,0,0-.12185-1.8925c-0.2628-1.161-.58213-2.3094-0.88374-3.46152C43.26934,61.491,42.13989,57.83027,39.84555,54.594a30.21679,30.21679,0,0,0-5.84884-6.51642c-0.89944-.7063-1.8173-1.38969-2.738-2.06822a39.31526,39.31526,0,0,0-8.755-5.34326c-1.623-.639-3.27056-1.4053-5.031-1.14076A11.65339,11.65339,0,0,0,11.03391,42.34768ZM69.14535,74.25874c-0.45309.1264-.68561,0.17953-0.91027,0.25581-1.832.622-3.64193,1.31993-5.4995,1.852a21.03677,21.03677,0,0,1-5.07838,1.08566c-2.47067.06747-4.9532,0.01654-7.43174,0.02842-4.60672.02207-9.05064-1.13461-13.52662-2.0372-0.49071-.099-0.989-0.16026-1.72583-0.27755,0.43519,1.92443.80455,3.55775,1.20075,5.30978,0.22336-.18678.35935-0.3133,0.50807-0.42247a0.69318,0.69318,0,0,1,1.13408.19877,0.73337,0.73337,0,0,1-.39149,1.10644,2.39608,2.39608,0,0,1-.41787.1511c-0.85186.21444-.59471,0.68042-0.373,1.16435,0.91781-.46385,1.75533-0.87846,2.58468-1.30879a1.51109,1.51109,0,0,1,2.01463.37881,11.156,11.156,0,0,1,1.09457,1.58137A1.84135,1.84135,0,0,0,44.792,84.39445a6.51924,6.51924,0,0,0,1.44836-.72743c0.47259-.27286.89373-0.64657,1.38487-0.87333a2.80765,2.80765,0,0,1,3.65543.99225,2.24937,2.24937,0,0,0,3.56488.297,13.637,13.637,0,0,1,1.17376-1.14131,2.72969,2.72969,0,0,1,4.00868.28538c0.34694,0.35072.63349,0.76143,0.94543,1.1465a0.92376,0.92376,0,0,0,1.66869-.00021,4.711,4.711,0,0,0,.46909-0.92765A3.05326,3.05326,0,0,1,65.83659,81.253a1.47857,1.47857,0,0,1,.8023-1.06247c0.49047,0.10957.50794,0.47852,0.2769,0.92751a1.97355,1.97355,0,0,0-.02519.80515l0.32956,0.02425C67.76439,79.4219,68.65278,76.98042,69.14535,74.25874Zm-21.29517-10.206,0.34639-.085c-0.16231-.60822-0.30826-1.22137-0.4897-1.82382-0.90218-2.99539-1.94213-5.95675-2.68012-8.99172-0.55983-2.30241-.74068-4.69711-1.08763-7.05111a20.50979,20.50979,0,0,1,.54335-7.831c0.45152-1.88223,1.0581-3.7279,1.48972-5.61409a9.75475,9.75475,0,0,0-1.66494-8.46731,15.7636,15.7636,0,0,1-3.38564-9.3825,22.85657,22.85657,0,0,0-2.94455-10.336c-0.26734,2.63566-.4089,5.10236-0.798,7.52937a7.66041,7.66041,0,0,0,1.13847,5.22758,33.66467,33.66467,0,0,1,2.196,4.87471,24.41885,24.41885,0,0,1,1.56327,5.27364,12.41069,12.41069,0,0,1-1.46556,8.07663,3.64827,3.64827,0,0,0-.539,2.11276c0.2565,2.11241.66763,4.20854,1.083,6.29823,0.24164,1.21575.62856,2.40185,0.91087,3.61046,0.59789,2.55962,1.1619,5.12712,1.75482,7.68792A29.67663,29.67663,0,0,0,47.85018,64.05273ZM33.02627,19.02948c-0.23981.85536-.48556,1.54253-0.62009,2.25083a33.19465,33.19465,0,0,0-.73405,4.54165,57.01922,57.01922,0,0,0,.01449,7.565c0.21769,2.54968.82016,3.00195,3.32678,3.19876,1.72447,0.13541,3.46314.01425,4.48761-1.67737a10.12194,10.12194,0,0,0,1.33419-8.43016c-1.14281-3.66744-2.14258-7.4409-4.746-10.48007a1.35,1.35,0,0,0-1.57738-.46036A2.908,2.908,0,0,0,33.02627,19.02948Zm30.91349,5.90978c-0.05335-1.24629-.00678-2.40081-0.17136-3.5244-0.31543-2.1538-.75112-4.29-1.13624-6.43359a20.45969,20.45969,0,0,0-.49162-2.62942c-0.44922-1.40273-1.61278-1.59528-2.57264-.49546a2.45658,2.45658,0,0,0-.45268.58847,35.15281,35.15281,0,0,0-2.03353,4.99773,42.06736,42.06736,0,0,1-1.87944,6.86433,2.285,2.285,0,0,0-.15736.72277c-0.3281,3.8958,1.30845,7.02675,3.83616,9.80638a1.817,1.817,0,0,0,.349.279,1.6646,1.6646,0,0,0,2.49166-.34262,6.9111,6.9111,0,0,0,1.861-4.134C63.72972,28.70754,63.82706,26.7728,63.93976,24.93926Zm-7.53205-10.391a21.407,21.407,0,0,0-2.07095-7.93759c-0.52264-1.25775-1.45755-1.44173-2.64462-.76246-0.3.17164-.62579,0.29748-0.9304,0.46167a4.40344,4.40344,0,0,0-2.3635,2.87736,14.17807,14.17807,0,0,0-.30969,5.01509,36.3577,36.3577,0,0,1-.01787,6.67749,32.94653,32.94653,0,0,0,.15363,4.88228,1.05229,1.05229,0,0,0,1.21954,1.02882,4.79853,4.79853,0,0,0,3.13735-1.13412c1.36256-1.152,1.79022-2.82815,2.32924-4.31956A49.62471,49.62471,0,0,0,56.40771,14.54825ZM48.365,70.89275l0.34191,0.09077a9.10586,9.10586,0,0,1,.59837-1.44628,9.76236,9.76236,0,0,0,1.21316-1.66437,7.90929,7.90929,0,0,0,.06481-2.2591L52.053,66.05228c0.83969-1.68983,1.68863-3.363,2.49312-5.05734a1.57823,1.57823,0,0,0-.00123-0.87247c-0.30288-1.708-.63269-3.4112-0.93518-5.11925a6.08784,6.08784,0,0,1,.00068-0.96958c1.53381,0.15357,1.56622,1.73171,2.46146,2.2729,0.4685-1.42929.88167-2.85941,1.407-4.24707a10.807,10.807,0,0,0,.86655-4.78435c-0.16287-1.92811-.30416-3.8582-0.48933-5.78412a1.72479,1.72479,0,0,0-.29817-1.37106c-1.14135,1.42591-2.23152,2.775-3.30674,4.13585-0.67615.8558-1.38054,1.69629-1.97428,2.60751a11.75438,11.75438,0,0,0-.71987,1.76221,17.4018,17.4018,0,0,0-1.40083,3.22756c-0.46627,2.27666-.71045,4.60112-0.99136,6.91254a9.63821,9.63821,0,0,0,.20616,4.12683A5.072,5.072,0,0,1,49.484,65.054c-0.15155,1.0654-.50595,2.10023-0.71716,3.15942C48.59049,69.09809,48.49586,69.999,48.365,70.89275ZM75.5659,19.117a4.801,4.801,0,0,0-.52163.42469c-2.44365,2.97861-4.738,6.07738-7.4688,8.8206-2.19852,2.20854-3.40454,5.10309-4.98094,7.73448a7.6865,7.6865,0,0,0-.62923,2.22716,21.81681,21.81681,0,0,0-.3703,6.27762c0.677-.8376,1.20142-1.49317,1.733-2.143,1.94266-2.37478,4.0934-4.61118,5.7808-7.155a40.58671,40.58671,0,0,0,5.47973-10.69111A18.041,18.041,0,0,0,75.5659,19.117ZM48.07209,59.17058c0.13646-.89338.24336-1.52538,0.328-2.16036q0.3632-2.72553.70939-5.4533a22.55513,22.55513,0,0,0,.32708-3.09008c-0.04379-3.02708-.17165-6.05319-0.28924-9.07881-0.04811-1.2379-.12067-2.47685-0.242-3.70943-0.1796-1.825-.40865-3.64522-0.62415-5.46658a3.37427,3.37427,0,0,0-1.00533-2.34784,26.59656,26.59656,0,0,1-1.6378,10.42437,18.83551,18.83551,0,0,0-.81153,7.65431A46.61649,46.61649,0,0,0,48.07209,59.17058ZM58.832,38.03381a2.32866,2.32866,0,0,0-.66476-2.46413c-1.50621-1.88552-3.187-3.69184-3.73855-6.15673-0.224-1.00106-.36211-2.02134-0.554-3.11676L50.691,28.07106c0.45779,5.62675.90843,11.1656,1.37533,16.90443a41.33765,41.33765,0,0,0,4.70518-5.91467C57.27626,38.26586,57.78551,37.72525,58.832,38.03381ZM47.12115,25.45317a24.28169,24.28169,0,0,1,.04516-7.14612,9.30074,9.30074,0,0,0-.00034-2.08313,27.09471,27.09471,0,0,1,.0062-6.97789,2.80964,2.80964,0,0,0-1.31-2.62274,18.3244,18.3244,0,0,0-2.17464-.48748A1.144,1.144,0,0,0,42.278,6.9477,7.87439,7.87439,0,0,0,41.74344,9.24c-0.02283,1.38343.25063,2.7739,0.20093,4.15425a15.635,15.635,0,0,0,1.22276,6.38022A13.90222,13.90222,0,0,0,47.12115,25.45317Zm-16.804,8.29893c0.02394-.45992.0529-0.69968,0.04638-0.93846a49.2357,49.2357,0,0,1,.73541-10.513,13.10759,13.10759,0,0,0,.27761-2.05839A2.51452,2.51452,0,0,0,29.617,17.90746a1.98493,1.98493,0,0,0-2.46654.85311,8.99091,8.99091,0,0,0-.7658,1.27073,11.01428,11.01428,0,0,0-.76926,7.82018A8.70087,8.70087,0,0,0,30.31711,33.7521Zm41.40538,12.495A22.198,22.198,0,0,1,77.58178,40.304c1.62-1.23316,3.21-2.507,4.85323-3.70806a5.11132,5.11132,0,0,1,5.49272-.50625,7.18224,7.18224,0,0,0,.91628.28711,2.989,2.989,0,0,0-1.12866-1.40169,8.96165,8.96165,0,0,0-7.32568-.77979,20.3917,20.3917,0,0,0-9.93374,6.98043,0.83709,0.83709,0,0,0-.1821.67372C70.708,43.25376,71.18765,44.644,71.72249,46.24713Zm-6.90455-16.5842c1.19169-1.2801,2.36235-2.41756,3.37958-3.67874a3.51754,3.51754,0,0,0,.86588-2.47971c-0.03677-.49051.08306-0.99082,0.07525-1.48579a37.04558,37.04558,0,0,0-.17287-5.02686,6.20223,6.20223,0,0,0-1.48186-3.521c-0.61331-.62956-1.07766-0.6402-1.57046.07011a20.96134,20.96134,0,0,0-1.13468,1.92751,3.089,3.089,0,0,0-.43755,2.4199C65.41741,21.70509,64.78774,25.58994,64.81794,29.66294ZM62.78672,65.69036c0.51367,0.58347.7986,0.27176,1.07335-.131,0.97756-1.43308,2.00449-2.83514,2.92438-4.30426,1.36048-2.17278,2.87358-4.22239,3.56581-6.80853A17.09064,17.09064,0,0,0,69.0545,42.40618c-0.153.8504-.31726,1.57033-0.4077,2.29942-0.37526,3.026-.73924,6.0512-1.2742,9.05686A28.90367,28.90367,0,0,1,62.78672,65.69036Zm-5.73353,8.12273c2.35056-.09122,2.607-0.334,2.54888-2.452a22.51977,22.51977,0,0,1-.13135-2.81473c0.28106-2.80347.33047-5.64516,1.20745-8.36566a9.41725,9.41725,0,0,0,.2248-1.16994l-0.3197-.11739c-0.41343.59646-.83643,1.18658-1.23675,1.79172a7.95459,7.95459,0,0,1-.69472,1.12586,1.30775,1.30775,0,0,1-.94016.49033,2.20584,2.20584,0,0,1-.84912-0.87366,1.88236,1.88236,0,0,1-.08881-0.58052,10.54916,10.54916,0,0,0-1.7385-3.73382c0.1847,1.3474.28233,2.38243,0.47574,3.39924a14.35144,14.35144,0,0,0,1.563,5.202,1.039,1.039,0,0,1,.10957.57447c-0.04434.89129-.123,1.78084-0.1689,2.67208-0.075,1.45388-.14286,2.90831-0.18785,4.3633A1.24515,1.24515,0,0,0,57.05319,73.81309Zm12.47961-2.3153a40.57,40.57,0,0,1-4.06746,1.629c-2.51893.71474-5.09868,1.2127-7.62652,1.89889-4.38541,1.19044-8.75263.8321-13.11881-.03435-1.40894-.2796-2.80482-0.64174-4.18685-1.03567-1.52072-.43347-3.01436-0.96114-4.52889-1.41758a15.90816,15.90816,0,0,0-1.58408-.30689c0.01128,0.86607.1897,1.341,0.93485,1.49387,2.71734,0.55742,5.42835,1.14563,8.14278,1.71726a21.15273,21.15273,0,0,0,3.19462.624c2.373,0.12259,4.7535.10992,7.13112,0.12633a33.34985,33.34985,0,0,0,4.1699-.07268c3.73254-.44609,7.14272-2.019,10.649-3.24368A1.15518,1.15518,0,0,0,69.5328,71.49779ZM67.33517,44.98223l-0.32838-.16687c-0.26422.32565-.53065,0.64953-0.79224,0.97727-0.61709.77312-1.20651,1.57006-1.8535,2.3172-0.99867,1.15327-2.04151,2.26819-3.04983,3.41328a0.92846,0.92846,0,0,0-.19412.538c-0.06954,1.55548-.11978,3.11183-0.17446,4.62924,1.63873-1.7486,3.04027-3.71683,5.0639-5.08285a1.43937,1.43937,0,0,0,.64867-0.7518A26.51081,26.51081,0,0,0,67.33517,44.98223ZM64.793,94.92389l-0.13924-.28469c-0.2716.03254-.54779,0.044-0.8139,0.10183a14.09317,14.09317,0,0,1-1.8757.42892q-3.93076.29506-7.86891,0.48855a45.94106,45.94106,0,0,1-5.64874.11445c-2.41883-.18232-4.81557-0.64823-7.22536-0.96519-0.69416-.0913-1.40047-0.09015-2.10121-0.13139a0.68022,0.68022,0,0,0,.325.6351c1.92469,0.46488,3.83488,1.04141,5.78712,1.33053,5.14776,0.76237,10.30088.30036,15.439-.21452a15.13024,15.13024,0,0,0,3.02338-.74284A4.52467,4.52467,0,0,0,64.793,94.92389Zm-4.05713-58.047L60.373,36.77751a2.54373,2.54373,0,0,0-.34674.69355q-0.46786,3.0725-.87787,6.15359a3.76082,3.76082,0,0,0,.07756,1.03176,27.09765,27.09765,0,0,1,.02331,6.22259c-0.21438,2.73328-.26942,5.47906-0.393,8.21946l0.32913,0.06746a4.65836,4.65836,0,0,0,.52931-1.13793,24.56362,24.56362,0,0,0,.3275-2.95277c0.16316-3.56528.28065-7.13263,0.43275-10.69846,0.04853-1.138.18255-2.27264,0.22047-3.41071C60.7408,39.60407,60.72513,38.24006,60.73591,36.87693Zm5.12722,18.33384a34.10859,34.10859,0,0,0-3.0452,2.365,4.36893,4.36893,0,0,0-.812,1.87176,19.036,19.036,0,0,1-.583,2.29426,2.30225,2.30225,0,0,0,.64134,2.89337C64.12629,61.559,65.65628,58.34736,65.86313,55.21078Zm-4.21027,11.2217c0.20265,1.80016.3703,3.36994,0.5594,4.93712a0.94516,0.94516,0,0,0,1.2993.983,1.51713,1.51713,0,0,0,1.32576-1.17424c0.66027-2.11906,1.463-4.19365,2.2039-6.28776,0.12609-.35636.22458-0.7225,0.4179-1.35094a6.29743,6.29743,0,0,0-.69006.5137,8.65813,8.65813,0,0,0-1.99131,3.26675c-0.37443,1.17426-.87253,1.30974-1.82218.5244A14.761,14.761,0,0,1,61.65286,66.43247ZM34.60035,64.79114c0.71312,2.90732,3.81314,6.76258,5.62632,7.07-0.77189-2.60442-.91245-5.32551-2.09484-7.79315a7.14716,7.14716,0,0,0-.00134,1.89986,0.9708,0.9708,0,0,1-.319,1.18088,0.90715,0.90715,0,0,1-1.14107-.41456C36.0475,66.12537,35.40149,65.54017,34.60035,64.79114Zm26.989-16.195c0.32345-.41571.63512-0.84125,0.97243-1.2454,1.36323-1.63344,2.6846-3.30581,4.119-4.87462,1.07279-1.17337,1.20626-1.38177.72572-3.05315-1.54556,1.81461-3.13524,3.57715-4.598,5.43941A4.31037,4.31037,0,0,0,61.58933,48.59612Zm6.77874-35.96236c0.968-2.732.97111-5.44813,2.46252-7.71158-2.02036,1.61-3.67281,3.43233-4.1446,6.12861ZM55.12162,62.98834l-0.37308-.09692c-0.39839,1.10193-.79434,2.20476-1.19758,3.30491a1.31862,1.31862,0,0,1-.25429.51353,1.35858,1.35858,0,0,0-.53784,1.80158,4.3588,4.3588,0,0,0,.88055,1.75988c0.59683-1.19273,1.18217-2.26943,1.67181-3.388a3.08052,3.08052,0,0,0,.20972-1.43765C55.45246,64.62117,55.26132,63.80689,55.12162,62.98834ZM50.50714,46.86019a66.52631,66.52631,0,0,0-1.16828-18.48337Q49.923,37.6185,50.50714,46.86019ZM48.67068,74.226l2.46566,0.0195a9.01661,9.01661,0,0,0-.30124-4.36386C49.208,70.90333,48.98752,72.482,48.67068,74.226Zm17.49552-2.69944a6.568,6.568,0,0,0,3.27851-2.00528,0.45739,0.45739,0,0,0,.09147-0.41021,3.84723,3.84723,0,0,0-1.078-1.09344,1.14386,1.14386,0,0,0-1.58969.36173A5.53109,5.53109,0,0,0,66.16619,71.52653ZM47.98362,6.83862a14.78887,14.78887,0,0,0,1.66385-1.33507,1.12824,1.12824,0,0,0,.16723-1.03488,1.377,1.377,0,0,0-.94723-0.72485,6.64768,6.64768,0,0,0-2.01686.42008c-0.83746.28193-.92758,0.77146-0.28839,1.42928C46.97169,6.0146,47.4464,6.37261,47.98362,6.83862Zm7.68257,67.33623c0.116-1.92847.23443-3.89768,0.35289-5.8669a7.299,7.299,0,0,0-1.56626,5.38857C54.4825,74.36292,55.00035,74.4251,55.66619,74.17484ZM37.69954,39.725l-0.46435.13634,3.1886,10.304,0.40037-.12381Q39.26185,44.88329,37.69954,39.725ZM31.57008,17.5599l0.9673-2.11627L31.117,14.64841c-0.76856.44309-1.588,0.77685-1.331,1.93072Zm32.01407-3.10563,0.33634,0.05281c0.70654-1.06359,1.63834-2.05881,1.01529-3.71415l-1.53165.63014ZM52.16235,69.46394l-0.27717.11941q0.19908,2.04377.39752,4.08761c0.04327,0.45037.224,0.78536,0.73592,0.69294,0.50926-.09195.56546-0.41694,0.40967-0.88484C52.98507,72.14775,52.58151,70.80324,52.16235,69.46394ZM37.14717,71.51868l0.09109-.21844-2.27709-2.33885a3.19358,3.19358,0,0,0-.77259,1.11084c-0.08009.61945,0.53325,0.713,1.01837,0.84753C35.85893,71.10053,36.5009,71.31734,37.14717,71.51868Zm20.352-11.85158,0.28319-.04817,0.04008-5.06779c-0.375,1.25062-.7037,2.3466-1.07132,3.57253ZM60.75954,68.616a4.79656,4.79656,0,0,0,.307,4.1226A8.03036,8.03036,0,0,0,60.75954,68.616ZM38.76272,37.501l-0.42007.07686c-0.234,1.14108.43173,2.05687,0.97726,3.00915ZM47.34865,65.2058l-0.33205-.048-0.00673.85118,0.13768,0.02058Zm-4.56755-8.70691-0.21975.11327,0.301,0.57713,0.16109-.07285Z"/><path d="M66.25618,84.40073A1.21368,1.21368,0,0,1,65.22541,85.75a0.70024,0.70024,0,0,1-.75016-0.88172,1.07224,1.07224,0,0,1,1.02639-1.08486A1.70225,1.70225,0,0,1,66.25618,84.40073Z"/><path d="M58.13742,84.74813a1.84116,1.84116,0,0,1,.50037.71605,0.85175,0.85175,0,0,1-.92155,1.03351,1.26081,1.26081,0,0,1-.68533-0.78547A0.93857,0.93857,0,0,1,58.13742,84.74813Z"/><path d="M40.57433,84.48214a4.36577,4.36577,0,0,1-1.39717.85881,1.1945,1.1945,0,0,1-.712-0.85881,0.66506,0.66506,0,0,1,.8558-0.72143A5.85856,5.85856,0,0,1,40.57433,84.48214Z"/><path d="M49.08218,84.16266a1.44474,1.44474,0,0,1,.38244.64643,0.898,0.898,0,0,1-.99867.84789,0.888,0.888,0,0,1-.53708-0.65729C47.89345,84.41073,48.29157,84.1443,49.08218,84.16266Z"/><path d="M43.46569,81.87814a2.2937,2.2937,0,0,1,.88414-0.67248,0.62391,0.62391,0,0,1,.66209.87226,1.417,1.417,0,0,1-.86744.77865C43.75235,82.95926,43.4081,82.66086,43.46569,81.87814Z"/><path d="M61.85582,83.23054c-0.96833-.45334-1.31745-0.94576-0.92592-1.39769a1.03062,1.03062,0,0,1,.87408-0.26318C62.38527,81.73183,62.38466,82.399,61.85582,83.23054Z"/><path d="M51.79819,82.61427a3.62208,3.62208,0,0,1,1.17683-.7872,0.79539,0.79539,0,1,1-.19912,1.57625A3.468,3.468,0,0,1,51.79819,82.61427Z"/></g><text x="0" y="115" fill="#000000" font-size="5px" font-weight="bold" font-family="'Helvetica Neue', Helvetica, Arial-Unicode, Arial, Sans-serif">Created by Olga</text><text x="0" y="120" fill="#000000" font-size="5px" font-weight="bold" font-family="'Helvetica Neue', Helvetica, Arial-Unicode, Arial, Sans-serif">from the Noun Project</text></svg>