<?xml version="1.0" encoding="iso-8859-1" ?>
              <svg
                version="1.1"
                xmlns="http://www.w3.org/2000/svg"
                xmlns:xlink="http://www.w3.org/1999/xlink"
                viewBox="0 0 766.5 511"
                width="766.5"
                height="511"
              >
                <g transform="translate(274.5 151.5) scale(1 1) rotate(0 122.04 98)"><path fill="#372387" stroke="#372387" d="M16.19 103.10L4.54 103.10Q4.12 103.10 4.12 102.58L4.12 102.58L4.33 31.75Q4.33 31.34 4.74 31.34L4.74 31.34L17.32 31.34Q17.73 31.34 18.04 31.75L18.04 31.75L27.42 45.36L36.81 31.75Q37.12 31.34 37.53 31.34L37.53 31.34L50.21 31.34Q50.62 31.34 50.62 31.75L50.62 31.75L50.83 102.58Q50.83 103.10 50.42 103.10L50.42 103.10L38.77 103.10Q38.35 103.10 38.35 102.58L38.35 102.58L38.25 50.00L27.42 65.67L16.70 50.00L16.60 102.58Q16.60 103.10 16.19 103.10L16.19 103.10ZM78.56 104.13L78.56 104.13Q72.99 104.13 68.41 101.30Q63.82 98.46 61.04 93.77Q58.25 89.08 58.25 83.41L58.25 83.41L58.35 50.73Q58.35 45.05 61.09 40.42Q63.82 35.78 68.46 32.99Q73.10 30.21 78.56 30.21L78.56 30.21Q84.13 30.21 88.67 32.99Q93.20 35.78 95.93 40.42Q98.67 45.05 98.67 50.73L98.67 50.73L98.77 83.41Q98.77 89.08 96.04 93.77Q93.31 98.46 88.72 101.30Q84.13 104.13 78.56 104.13ZM78.56 91.66L78.56 91.66Q81.66 91.66 83.97 89.13Q86.29 86.60 86.29 83.41L86.29 83.41L86.19 50.73Q86.19 47.32 84.03 44.95Q81.86 42.58 78.56 42.58L78.56 42.58Q75.37 42.58 73.10 44.90Q70.83 47.22 70.83 50.73L70.83 50.73L70.83 83.41Q70.83 86.81 73.10 89.23Q75.37 91.66 78.56 91.66ZM117.84 103.10L107.53 103.10Q106.71 103.10 106.71 102.38L106.71 102.38L106.61 32.17Q106.61 31.34 107.43 31.34L107.43 31.34L116.71 31.34L134.13 71.96L133.62 32.17Q133.62 31.34 134.55 31.34L134.55 31.34L144.75 31.34Q145.37 31.34 145.37 32.17L145.37 32.17L145.47 102.48Q145.47 103.10 144.96 103.10L144.96 103.10L135.89 103.10L118.05 65.16L118.77 102.28Q118.77 103.10 117.84 103.10L117.84 103.10ZM166.51 103.10L154.86 103.10Q154.44 103.10 154.44 102.58L154.44 102.58L154.65 31.86Q154.65 31.34 155.06 31.34L155.06 31.34L166.61 31.34Q167.02 31.34 167.02 31.86L167.02 31.86L167.02 56.29L183.21 31.75Q183.52 31.34 183.93 31.34L183.93 31.34L195.79 31.34Q196.20 31.34 195.99 31.75L195.99 31.75L178.16 60.21L198.16 102.69Q198.36 103.10 197.64 103.10L197.64 103.10L185.06 103.10Q184.55 103.10 184.45 102.69L184.45 102.69L170.53 72.38L166.92 78.05L166.92 102.58Q166.92 103.10 166.51 103.10L166.51 103.10ZM216.41 104.13L216.41 104.13Q210.84 104.13 206.25 101.30Q201.66 98.46 198.93 93.77Q196.20 89.08 196.20 83.41L196.20 83.41L196.20 78.67Q196.20 78.15 196.71 78.15L196.71 78.15L208.26 78.15Q208.67 78.15 208.67 78.67L208.67 78.67L208.67 83.41Q208.67 86.81 210.94 89.23Q213.21 91.66 216.41 91.66L216.41 91.66Q219.60 91.66 221.87 89.18Q224.14 86.71 224.14 83.41L224.14 83.41Q224.14 79.59 219.19 76.81L219.19 76.81Q217.54 75.88 214.04 73.92Q210.53 71.96 207.44 70.21L207.44 70.21Q201.77 66.91 199.03 61.91Q196.30 56.91 196.30 50.62L196.30 50.62Q196.30 44.85 199.09 40.26Q201.87 35.67 206.46 32.99Q211.05 30.31 216.41 30.31L216.41 30.31Q221.87 30.31 226.46 33.04Q231.05 35.78 233.78 40.36Q236.51 44.95 236.51 50.62L236.51 50.62L236.51 59.08Q236.51 59.49 236.10 59.49L236.10 59.49L224.55 59.49Q224.14 59.49 224.14 59.08L224.14 59.08L224.04 50.62Q224.04 47.01 221.77 44.75Q219.50 42.48 216.41 42.48L216.41 42.48Q213.21 42.48 210.94 44.90Q208.67 47.32 208.67 50.62L208.67 50.62Q208.67 54.02 210.12 56.29Q211.56 58.56 215.38 60.62L215.38 60.62Q215.89 60.93 217.39 61.71Q218.88 62.48 220.63 63.46Q222.39 64.44 223.78 65.16Q225.17 65.88 225.48 66.09L225.48 66.09Q230.63 68.97 233.62 73.15Q236.61 77.32 236.61 83.41L236.61 83.41Q236.61 89.28 233.88 93.98Q231.15 98.67 226.56 101.40Q221.97 104.13 216.41 104.13Z"/></g><g transform="translate(40.159 98.75) scale(7.694 7.696) rotate(0 15.608266181440085 16.599532224532226)"><g clip-path="url(#clipPath_GFjhSU9jASa_6Y_Ez2O0a)"><defs>
          <clipPath id="clipPath_GFjhSU9jASa_6Y_Ez2O0a">
            <rect x="0" y="0" width="31.216" height="33.197" />
          </clipPath>
       </defs> <g>  <path d="M27.791,2.058l3.4,28.4c0.2,1.4-0.8,2.5-2.1,2.7c-0.5,0.1-0.8,0-1.3-0.2l-26.3-11.2   c-1.3-0.5-1.8-2-1.3-3.2c0.2-0.4,0.5-0.7,0.8-1l22.9-17.1c1.1-0.8,2.6-0.5,3.4,0.5C27.691,1.158,27.691,1.558,27.791,2.058z" fill="#6D5EA8"/>  <path d="M18.591,10.458c0,0.1,0,0.2,0,0.2c0,0.1,0,0.1-0.1,0.2c-0.1,0.1-0.2,0-0.3-0.1v-0.1l0,0   c-0.1-0.1,0-0.3,0.1-0.3C18.391,10.258,18.591,10.358,18.591,10.458z M18.591,25.058c-0.1,0.1-0.1,0.2-0.1,0.3s0,0.2,0.1,0.3   c0.1,0.2,0.4,0.2,0.6,0c0.2-0.1,0.2-0.4,0-0.6c0-0.1-0.1-0.1-0.2-0.1C18.891,24.858,18.791,24.858,18.591,25.058z M25.091,10.158   c0,0.3,0.2,0.4,0.4,0.4c0.3,0,0.4-0.2,0.4-0.4c0,0,0,0,0-0.1c0,0,0,0,0-0.1c0-0.2-0.2-0.4-0.4-0.4   C25.191,9.658,25.091,9.858,25.091,10.158C25.091,10.058,25.091,10.058,25.091,10.158L25.091,10.158z M19.391,16.058l-0.1,0.1   c0,0.1,0,0.2,0.2,0.2h0.1l0,0c0.1,0,0.3-0.1,0.3-0.2c0-0.1-0.1-0.2-0.2-0.3C19.591,15.958,19.491,16.058,19.391,16.058z    M17.691,11.958L17.691,11.958c0.1,0,0.2,0,0.2-0.1c0.1-0.1,0-0.2,0-0.3s-0.2,0-0.3,0v0.1c0,0,0,0-0.1,0c0,0,0,0,0,0.2   C17.491,12.058,17.591,12.058,17.691,11.958z M18.591,15.458L18.591,15.458c0,0.1,0,0.1,0,0.1c0,0.2,0,0.3,0.2,0.3   c0.2,0.1,0.4,0,0.4-0.2c0.1-0.2-0.1-0.4-0.2-0.4C18.791,15.158,18.591,15.258,18.591,15.458z M19.391,15.158L19.391,15.158   L19.391,15.158C19.391,15.258,19.391,15.258,19.391,15.158c0.1,0.2,0.2,0.2,0.3,0.1c0.1-0.1,0.1-0.2,0-0.3l0,0l0,0   c-0.1-0.1-0.2-0.1-0.3,0C19.291,14.958,19.291,15.058,19.391,15.158C19.291,15.158,19.291,15.158,19.391,15.158z M27.991,12.558   c0,0,0,0.1-0.1,0.1c0,0.1,0,0.2,0,0.3c0.1,0.1,0.3,0.1,0.4,0c0.1-0.1,0.1-0.2,0.1-0.4h0.1l0,0l0.1,0.1c0.1,0,0.2-0.1,0.2-0.2   c0-0.1-0.1-0.2-0.2-0.2l0,0c0,0,0,0-0.1,0s-0.2,0.1-0.2,0.2c0,0,0,0,0,0.1h-0.1c0,0,0,0-0.1,0   C28.091,12.458,28.091,12.458,27.991,12.558z M26.491,15.758c0,0.2,0.1,0.4,0.3,0.4c0.1,0,0.2,0,0.3-0.1l0,0c0.1,0,0.1,0,0.1-0.1   v-0.1c0,0,0,0,0-0.1c0-0.2-0.1-0.4-0.3-0.4h-0.1c0,0-0.1,0-0.1,0.1C26.591,15.658,26.491,15.658,26.491,15.758z M27.691,9.158h0.1   l0,0c0.1,0,0.2-0.1,0.2-0.2c0-0.1-0.1-0.2-0.2-0.2c-0.1,0-0.1,0-0.2,0.1c0,0-0.1,0-0.1,0.1C27.491,9.058,27.591,9.158,27.691,9.158   z M29.791,23.158c0-0.1-0.2-0.2-0.3-0.1c-0.1,0-0.2,0.2-0.1,0.3c0,0.1,0.2,0.1,0.3,0.1S29.891,23.258,29.791,23.158z    M20.491,23.858c0-0.1,0-0.2,0-0.2c-0.1-0.1-0.2-0.1-0.2,0c-0.1,0.1-0.1,0.2,0,0.2C20.391,23.958,20.491,23.958,20.491,23.858z    M18.191,21.758c0.2,0,0.4-0.2,0.4-0.3s0.1-0.1,0.1-0.2c0-0.2-0.2-0.4-0.4-0.4s-0.4,0.2-0.4,0.4c0,0.1-0.1,0.1-0.1,0.2   C17.791,21.558,17.991,21.758,18.191,21.758z M21.091,18.858c0.2,0.1,0.3,0,0.4-0.1c0.1-0.2,0.1-0.3,0-0.4c0-0.1-0.1-0.2-0.2-0.2   c-0.2-0.1-0.3,0-0.4,0.2c-0.1,0.1,0,0.3,0.1,0.4C21.091,18.758,21.091,18.758,21.091,18.858z M20.291,15.858L20.291,15.858   c-0.1,0.1-0.1,0.2,0,0.3h0.1c0.1,0.1,0.2,0,0.3-0.1s0.1-0.2-0.1-0.3C20.491,15.658,20.391,15.758,20.291,15.858z M18.091,13.758   c-0.1-0.1-0.3-0.1-0.5,0.1c-0.1,0.1-0.1,0.3,0,0.4c0,0.1,0.1,0.1,0.1,0.2c0.2,0.1,0.4,0.1,0.6-0.1c0.1-0.2,0.1-0.4-0.1-0.6   C18.191,13.758,18.191,13.758,18.091,13.758L18.091,13.758z M24.391,13.058c0,0.2,0.1,0.2,0.3,0.2s0.2-0.1,0.2-0.3v-0.1   c0,0,0,0,0-0.1s-0.1-0.2-0.2-0.1c-0.1,0-0.1,0.1-0.1,0.1C24.491,12.758,24.391,12.858,24.391,13.058z M25.091,13.058   c0.1,0.1,0.2,0.1,0.3,0s0.1-0.1,0.1-0.2c0-0.1,0-0.2-0.1-0.2c-0.1-0.1-0.2,0-0.3,0c0,0,0,0,0,0.1l0,0c0,0,0,0,0,0.1l0,0   C25.091,12.958,25.091,13.058,25.091,13.058z M22.091,18.358c0.1,0.2,0.2,0.3,0.3,0.3c0,0-0.1,0.1-0.1,0.2c0,0.1,0,0.2,0.1,0.2   c0,0.1,0.1,0.2,0.2,0.2c0.1,0,0.2,0,0.3-0.1c0.1,0,0.2-0.1,0.2-0.2c0-0.2-0.1-0.4-0.3-0.4l0,0c0.1-0.1,0.2-0.2,0.1-0.3   c-0.1-0.1-0.1-0.2-0.2-0.2l0,0h-0.1l0,0l0,0C22.191,17.958,22.091,18.158,22.091,18.358L22.091,18.358L22.091,18.358z    M24.791,13.258c-0.2,0-0.3,0.2-0.3,0.4s0.2,0.3,0.4,0.3l0,0c0,0,0,0,0.1,0s0.1,0,0.1,0l0,0v0.1l0,0l0,0c0,0.2,0.2,0.3,0.3,0.2l0,0   l0,0c0.1,0,0.3-0.2,0.3-0.4c-0.1-0.2-0.2-0.3-0.4-0.3c-0.1,0-0.1,0.1-0.1,0.1c0-0.1,0-0.1,0-0.2c0-0.2-0.1-0.2-0.3-0.3   C24.991,13.258,24.891,13.258,24.791,13.258z M22.591,12.258c0.1,0,0.1-0.1,0.1-0.1s0,0,0-0.1v-0.1c0-0.1-0.2-0.2-0.3-0.1   c-0.1,0.1-0.2,0.2-0.1,0.3C22.291,12.258,22.491,12.358,22.591,12.258z M17.391,19.158c0,0.1,0.1,0.1,0.2,0.1l0,0c0,0,0,0,0.1,0   c0.1-0.1,0.1-0.2,0.1-0.3c-0.1-0.1-0.2-0.1-0.3-0.1C17.391,18.958,17.391,18.958,17.391,19.158   C17.391,19.058,17.391,19.158,17.391,19.158z M27.791,27.558L27.791,27.558C27.691,27.558,27.691,27.558,27.791,27.558   c-0.1,0-0.1,0-0.1,0c-0.1,0-0.1,0.1-0.1,0.2l0,0c0,0.1,0.1,0.2,0.2,0.2c0.1,0,0.2-0.1,0.2-0.2   C27.991,27.658,27.891,27.558,27.791,27.558L27.791,27.558z M27.991,29.658c0-0.2-0.1-0.4-0.3-0.4c-0.1,0-0.2,0-0.3,0.1   c-0.1,0-0.2,0.1-0.2,0.2c0,0.2,0.1,0.3,0.2,0.3c0,0,0.1,0.1,0.2,0.1C27.791,29.958,27.991,29.858,27.991,29.658z M24.691,23.758   C24.691,23.658,24.691,23.658,24.691,23.758c0-0.1-0.1-0.1-0.1-0.1s0-0.1,0-0.2c0-0.1,0-0.1-0.1-0.1s-0.2,0.1-0.2,0.2   c-0.1-0.1-0.2-0.1-0.3-0.1c-0.2,0-0.4,0.3-0.4,0.5c0,0,0,0,0,0.1v0.1c0,0.1,0,0.1,0,0.1s0,0,0,0.1c-0.1,0.2,0,0.3,0.1,0.4   c0,0.1,0.1,0.2,0.2,0.2c0.1,0,0.4-0.1,0.4-0.2s0-0.1,0-0.2h-0.1c0.1-0.2,0.2-0.2,0.2-0.3l0.1,0.1c0.1,0,0.3-0.1,0.3-0.2v-0.1   c0,0,0,0,0-0.1S24.791,23.758,24.691,23.758z M24.191,26.558c-0.1-0.1-0.2-0.1-0.3,0s-0.1,0.2,0,0.3l0,0l0,0c0.1,0.1,0.2,0.1,0.3,0   c0.1,0,0.1-0.1,0.1-0.2C24.291,26.658,24.291,26.658,24.191,26.558z M23.191,24.058c-0.1-0.1-0.2-0.2-0.3-0.2   c-0.2,0-0.4,0.1-0.4,0.4s0.1,0.4,0.4,0.4l0,0l0,0c0.2,0.1,0.3-0.1,0.4-0.3C23.191,24.258,23.191,24.158,23.191,24.058   C23.191,24.158,23.191,24.158,23.191,24.058L23.191,24.058z M27.591,26.858C27.591,26.758,27.491,26.758,27.591,26.858   L27.591,26.858z M29.191,25.858L29.191,25.858c0.1,0.1,0.1,0.2,0.1,0.2c0.1,0.1,0.3,0,0.4-0.1c0.1-0.1,0-0.2,0-0.3l-0.1-0.1   c-0.1-0.1-0.3,0-0.4,0.1c0-0.1-0.1-0.2-0.2-0.3c-0.1,0-0.1,0-0.2,0c-0.2-0.1-0.4,0-0.5,0.1c0-0.1-0.1-0.1-0.1-0.1l0,0   c0-0.1,0-0.3-0.1-0.4c-0.2-0.2-0.5-0.1-0.5,0.1c-0.1,0.1-0.1,0.2-0.1,0.2s0,0.1-0.1,0.1c0,0,0,0,0,0.1c0-0.1-0.1-0.1-0.2-0.1h-0.1   c-0.1,0-0.2,0.2-0.2,0.3l0,0l0,0c0,0.2,0.2,0.3,0.4,0.2c0.1,0,0.2-0.1,0.2-0.2c0,0.1,0.1,0.1,0.1,0.2c0.1,0.1,0.3,0.1,0.5,0   c0,0.1,0,0.1,0.1,0.1c0,0,0,0,0.1,0l0,0c-0.1,0-0.1,0-0.2,0l0,0c0,0,0,0-0.1,0s-0.2,0.2-0.2,0.3l0,0c0,0.1-0.1,0.1,0,0.1   s0.1,0,0.1,0c0,0.1,0.1,0.1,0.2,0.1c0.2-0.1,0.2-0.2,0.3-0.3l0,0l0,0l0,0c0,0,0,0.1,0.1,0.1c0.2,0.1,0.3,0.1,0.5,0   C28.991,26.058,29.091,25.958,29.191,25.858L29.191,25.858z M24.691,16.858C24.791,16.858,24.791,16.758,24.691,16.858   L24.691,16.858z M29.991,25.458c-0.1,0-0.2,0.1-0.2,0.2s0.1,0.2,0.2,0.2l0,0l0,0c0.1,0,0.2-0.1,0.2-0.2   C30.191,25.558,30.191,25.458,29.991,25.458L29.991,25.458L29.991,25.458z M28.891,27.458   C28.891,27.358,28.791,27.358,28.891,27.458L28.891,27.458z M28.891,27.458C28.791,27.358,28.791,27.458,28.891,27.458   L28.891,27.458z M26.791,25.758C26.891,25.658,26.791,25.658,26.791,25.758L26.791,25.758z M27.591,26.858   C27.491,26.758,27.391,26.758,27.591,26.858L27.591,26.858z M27.391,30.158c0.1,0,0.1,0,0.1-0.1s0-0.1-0.1-0.1s-0.1,0-0.1,0   c0-0.1-0.1-0.1-0.1-0.2l0,0c0-0.1,0-0.1-0.1-0.1c0,0-0.1-0.1-0.2-0.1c0.1,0,0.2-0.1,0.3-0.2l0,0c0.1,0,0.1-0.1,0.1-0.1l0,0   c0.2-0.2,0.2-0.4,0-0.5s-0.4-0.2-0.5,0l0,0c0,0-0.1,0-0.1,0.1l0,0c-0.1,0-0.2,0.1-0.2,0.1l0,0c0,0,0-0.1,0.1-0.1l-0.1,0.1   c-0.1,0-0.1,0.1-0.1,0.2c0,0,0,0.1-0.1,0.2l0.1,0.1l0,0c-0.1,0-0.1,0-0.1,0.1s0,0.2,0.1,0.2s0.2,0,0.2-0.1v-0.1l0,0   c0.1,0,0.2,0,0.3,0h0.1c-0.1,0-0.1,0-0.2,0.1c-0.1,0.1-0.2,0.2-0.1,0.4h-0.1c0,0-0.1,0-0.1,0.1s0,0.1,0,0.1l0,0c0,0,0,0,0,0.1   c0.1,0,0.2,0,0.2-0.1c0.1,0.1,0.4,0.1,0.5,0l0.1-0.1C27.291,30.158,27.291,30.158,27.391,30.158c-0.1,0-0.1,0-0.1-0.1   C27.291,30.058,27.291,30.058,27.391,30.158C27.291,30.158,27.391,30.158,27.391,30.158z M24.491,19.458c-0.1,0.1-0.2,0.3-0.1,0.5   c0.1,0.1,0.3,0.2,0.5,0.1c0.1-0.1,0.2-0.3,0.1-0.5C24.891,19.458,24.691,19.358,24.491,19.458z M25.091,17.458   c0.2-0.1,0.2-0.2,0.2-0.4c-0.1-0.2-0.2-0.2-0.4-0.2l0,0c-0.1,0.1-0.2,0.2-0.2,0.3l0,0l0,0   C24.791,17.458,24.891,17.458,25.091,17.458z M25.791,19.958C25.891,19.958,25.891,19.958,25.791,19.958c0.1,0,0.2,0,0.2-0.1   l-0.1-0.1l0,0c-0.1-0.1-0.1-0.1-0.2-0.1c-0.1,0.1-0.1,0.1-0.1,0.2l0.1,0.1c-0.1,0-0.1,0-0.2,0l0,0c0,0,0,0-0.1,0   c-0.2,0.1-0.3,0.3-0.3,0.5c0,0,0-0.1,0.1-0.1v0.1c-0.2,0.1-0.1,0.4,0.1,0.5c0,0,0,0.1,0.1,0.1l0,0c0.2,0.1,0.4,0.1,0.5-0.1   c0-0.1,0-0.2,0-0.2c0-0.1,0.1-0.1,0.1-0.2c0-0.1,0-0.2,0-0.3C25.891,20.058,25.891,19.958,25.791,19.958L25.791,19.958   L25.791,19.958z M26.591,17.958C26.491,17.958,26.491,18.058,26.591,17.958L26.591,17.958z M25.491,17.858c0,0.1,0,0.1,0,0.2   c0,0.1,0.1,0.1,0.1,0.1c0.1,0,0.2,0,0.2-0.1s0-0.2-0.1-0.2l0,0l0,0C25.591,17.758,25.491,17.758,25.491,17.858z M25.391,15.158   C25.491,15.258,25.491,15.158,25.391,15.158L25.391,15.158z M24.791,18.958c-0.1-0.1-0.2-0.1-0.2-0.2c-0.1,0-0.2-0.1-0.2-0.2   c-0.1-0.2-0.1-0.4,0.1-0.5c0.1,0,0.1,0,0.2,0l0,0c0.1-0.1,0.4-0.1,0.5,0.1v0.1l0,0h0.1c0.1,0,0.2,0.1,0.2,0.2   c0,0.2-0.1,0.3-0.2,0.4C25.191,19.058,24.891,19.158,24.791,18.958z M25.191,18.358L25.191,18.358L25.191,18.358L25.191,18.358z    M27.791,15.058C27.891,15.158,27.891,15.058,27.791,15.058L27.791,15.058z M27.691,16.758   C27.691,16.858,27.791,16.858,27.691,16.758L27.691,16.758z M28.491,22.858c0,0.1,0.1,0.2,0.2,0.2c0.1,0,0.2-0.1,0.2-0.2   c0.1-0.3,0.1-0.5,0-0.6c-0.1-0.2-0.2-0.2-0.4-0.1c-0.1,0-0.1,0-0.2,0c-0.1,0.1-0.2,0.3-0.1,0.5c0.1,0.1,0.2,0.1,0.3,0.1h0.1   C28.591,22.758,28.591,22.758,28.491,22.858C28.491,22.758,28.491,22.858,28.491,22.858z M28.891,24.758c0.2,0,0.3-0.1,0.4-0.2   c0.1-0.2,0.1-0.4-0.1-0.6c0-0.1-0.1-0.1-0.2-0.2c-0.2-0.2-0.5-0.1-0.7,0.2c-0.2,0.2,0,0.5,0.2,0.7   C28.591,24.758,28.691,24.758,28.891,24.758z M28.091,22.858c-0.2-0.1-0.5,0-0.6,0.2s0,0.5,0.2,0.7c0.2,0.1,0.5,0.1,0.6-0.1   c0.1,0,0.1-0.1,0.2-0.2c0.1-0.2,0-0.5-0.2-0.6C28.191,22.858,28.191,22.858,28.091,22.858z M24.891,15.558   C24.991,15.458,24.891,15.458,24.891,15.558L24.891,15.558z M11.991,24.858c-0.1,0-0.2,0-0.3,0.1c0,0-0.1,0-0.2,0l0,0   c-0.3,0-0.4,0.3-0.4,0.5c0,0.3,0.3,0.4,0.5,0.4c0.1,0,0.3-0.1,0.3-0.2h0.1c0.2,0,0.3-0.1,0.3-0.3c-0.1-0.1-0.1-0.2-0.1-0.3   C12.091,24.958,12.091,24.858,11.991,24.858z M18.291,26.058C18.391,25.958,18.291,25.958,18.291,26.058L18.291,26.058z    M12.091,20.058c-0.2,0-0.3,0-0.3,0.2s0,0.3,0.2,0.3s0.3-0.1,0.3-0.2S12.191,20.058,12.091,20.058z M5.491,18.258L5.491,18.258   L5.491,18.258L5.491,18.258c-0.1,0-0.1-0.1-0.1-0.1l0,0l0,0c-0.1,0-0.3,0.1-0.3,0.2c-0.1,0.2,0,0.4,0.2,0.5s0.4,0,0.5-0.2l0,0l0,0   C5.791,18.558,5.691,18.358,5.491,18.258z M11.491,19.358L11.491,19.358L11.491,19.358c0.1,0,0.1-0.1,0.1-0.1   c0.1-0.1,0.2-0.3,0.1-0.4c0-0.1,0-0.1-0.1-0.2c0-0.1-0.1-0.1-0.2-0.1c-0.2-0.1-0.4-0.1-0.5,0.1c-0.3,0.2-0.3,0.6-0.1,0.7   C10.991,19.558,11.291,19.558,11.491,19.358z M11.691,16.258c-0.1,0.1-0.2,0.4-0.1,0.5l0,0l0,0c0.1,0.1,0.3,0.2,0.4,0.1   c0.1-0.1,0.1-0.2,0.1-0.3s0-0.2,0-0.3C12.091,16.258,11.891,16.158,11.691,16.258z M19.891,26.958L19.891,26.958   C19.891,27.058,19.891,27.058,19.891,26.958c0-0.3-0.2-0.6-0.5-0.7c-0.3-0.1-0.4,0-0.5,0.3l-0.1,0.1h-0.1c-0.1,0.1-0.2,0.1-0.2,0.2   c-0.1,0.1-0.2,0.2-0.2,0.4c-0.1,0.1-0.1,0.3,0,0.5c0.1,0.1,0.3,0.1,0.5,0c0,0,0,0,0.1-0.1c0,0,0.1,0,0.1-0.1l0.1,0.1   c0.2,0.1,0.4,0,0.4-0.2c0.1,0,0.1-0.1,0.1-0.1s0,0,0-0.1C19.691,27.258,19.791,27.158,19.891,26.958   C19.791,26.958,19.791,26.958,19.891,26.958C19.791,26.958,19.891,26.958,19.891,26.958C19.891,27.058,19.891,27.058,19.891,26.958   c-0.1,0.1,0,0.2,0,0.2h0.1c0.1,0,0.2,0,0.2-0.1c0,0,0-0.1-0.1-0.2C19.991,26.858,19.891,26.858,19.891,26.958z M11.391,13.358   c0.1,0.2,0.3,0.4,0.5,0.3c0.2-0.1,0.4-0.3,0.3-0.5v-0.1c-0.1-0.2-0.3-0.3-0.5-0.3c-0.1,0-0.2,0.1-0.3,0.3   C11.391,13.158,11.391,13.258,11.391,13.358z M29.691,32.358L29.691,32.358c0-0.2-0.2-0.2-0.4-0.2c0,0.1,0,0.1,0,0.2l0,0   c-0.1-0.2-0.2-0.3-0.4-0.3l0,0c0,0,0,0,0-0.1c0.1-0.1,0.1-0.3,0-0.3h-0.1l0,0c0-0.1,0.1-0.1,0.1-0.2l0.1,0.1   c0.1,0.1,0.2,0.2,0.3,0.1c0.1,0,0.2,0,0.3-0.1c0.2-0.1,0.2-0.3,0-0.5s-0.4-0.2-0.4-0.2c-0.1,0-0.2,0-0.2,0.1l0,0   c-0.1,0-0.1,0-0.1,0.1v0.1l0.1-0.1l0,0c-0.1,0.1-0.1,0.2-0.1,0.2c-0.1-0.1-0.2-0.1-0.3-0.1h-0.1l0,0c-0.1,0.1-0.1,0.2-0.1,0.3h-0.1   c-0.1,0.1-0.1,0.3-0.1,0.4l0.1,0.1l-0.1,0.1c-0.1,0-0.1,0.1-0.1,0.1c0-0.1-0.1-0.1-0.2-0.1c-0.1,0-0.1-0.1-0.2-0.1   c-0.2,0-0.4,0.2-0.4,0.4l0,0c0,0,0,0,0,0.1c0.1,0.3,0.3,0.4,0.5,0.4c0.1,0,0.2-0.1,0.3-0.2c0.1,0,0.1,0.1,0.1,0.1   c0.1,0.2,0.3,0.2,0.5,0c0.1,0.1,0.3,0.1,0.4,0.1c0.1,0,0.2-0.1,0.2-0.2c0.1,0,0.1,0.1,0.2,0.1h0.1l0,0l0,0l0,0c0.1,0,0.1,0,0.1-0.1   c0.1,0,0.2,0,0.3-0.1C29.791,32.458,29.791,32.358,29.691,32.358z M10.091,16.358L10.091,16.358   C10.191,16.358,10.191,16.358,10.091,16.358c0.1-0.1,0.1-0.1,0.2-0.2c0-0.2,0-0.3-0.2-0.4c-0.2,0-0.3,0-0.4,0.2v0.1   c-0.1,0.1,0,0.3,0.2,0.3C9.991,16.458,9.991,16.458,10.091,16.358z M16.991,25.858c0.1,0.4,0.1,0.5-0.1,0.6h-0.1l-0.1,0.1   c-0.1,0.1-0.3,0-0.4,0c-0.1,0-0.1,0.1-0.2,0.1c0-0.1,0-0.1,0-0.1v-0.1l0,0c0,0.1,0,0.1,0,0.1c-0.1,0.2-0.3,0.2-0.4,0.2   c-0.1,0-0.2,0-0.2-0.1l0,0c-0.1-0.1-0.2-0.2-0.3-0.4c0-0.1,0-0.1,0-0.2c0-0.1,0-0.1,0-0.1l-0.1,0.1c-0.2,0.2-0.5,0.1-0.7-0.2   c-0.1-0.1-0.1-0.1-0.1-0.2l-0.1,0.1c-0.1,0-0.1,0.1-0.2,0.1c-0.2,0-0.4-0.2-0.4-0.4s0.2-0.4,0.4-0.4c0.1,0,0.1-0.1,0.2-0.1   c0.1,0,0.3,0.1,0.3,0.2c0,0,0.1-0.1,0.2-0.1c0.3-0.2,0.5-0.1,0.7,0.2c0,0.1,0.1,0.1,0.1,0.2l0,0l0,0c0.1-0.1,0.2-0.1,0.3-0.2   c0.3-0.1,0.6,0.1,0.7,0.4l0.1-0.1C16.691,25.458,16.991,25.558,16.991,25.858z M15.491,26.558v-0.1l0,0   C15.491,26.458,15.491,26.558,15.491,26.558z M13.291,25.658L13.291,25.658c-0.1,0-0.1,0-0.1,0c-0.1,0-0.2,0.1-0.2,0.2   c0,0.1,0,0.1,0.1,0.2c0,0.1,0.1,0.2,0.2,0.2c0.1,0,0.2-0.1,0.3-0.2C13.491,25.758,13.491,25.658,13.291,25.658z M16.591,27.358   L16.591,27.358c0-0.2-0.2-0.3-0.4-0.2c-0.1,0-0.2,0.1-0.2,0.2c-0.1,0.1-0.1,0.1,0,0.3c0,0.1,0.1,0.2,0.2,0.2h-0.1l0.4,0.2   c-0.1-0.1-0.2-0.1-0.3-0.2c0,0,0.1,0,0.2,0C16.591,27.758,16.691,27.558,16.591,27.358C16.591,27.458,16.591,27.458,16.591,27.358z    M21.391,28.058c-0.1,0-0.1,0-0.1,0l0,0l0,0h-0.1l0,0c-0.1,0-0.2,0-0.3,0.1s-0.1,0.4,0,0.5s0.2,0.1,0.2,0.1c0.1,0,0.1,0,0.2,0   c0.1,0.1,0.2,0.1,0.4,0.1s0.4-0.2,0.4-0.5c-0.1-0.1-0.3-0.2-0.4-0.2C21.591,28.058,21.491,28.058,21.391,28.058z M30.791,29.858   c0,0,0.1,0,0.1,0.1s-0.1,0.3-0.2,0.3l0,0c0,0.1-0.1,0.1-0.1,0.1c-0.1,0-0.2,0-0.3,0c-0.1-0.1-0.2-0.2-0.1-0.4c0-0.1,0-0.1,0-0.2   c0.1-0.1,0.2-0.1,0.3-0.1h0.1c-0.1-0.1-0.1-0.2-0.1-0.3c0-0.2,0.2-0.3,0.4-0.3c0.1,0.1,0.1,0.1,0.2,0.1l0.1,0.5   c-0.1,0.1-0.3,0.1-0.4,0.1l0,0C30.791,29.758,30.791,29.858,30.791,29.858L30.791,29.858z M30.691,30.158L30.691,30.158   L30.691,30.158L30.691,30.158z M23.891,28.058c0,0.2,0.2,0.3,0.4,0.3l-0.1,0.1c-0.1,0.2,0,0.4,0.2,0.4h0.1c0,0.1,0,0.1,0,0.2l0,0   v0.1c0,0,0,0.1,0.1,0.1c0,0,0,0,0,0.1l0,0c0,0.1,0,0.1,0.1,0.2l-0.1,0.1v0.1l0,0l0,0l0,0c0,0.1,0.1,0.2,0.2,0.2v-0.1l0,0v-0.1l0,0   c0.1,0,0.2,0,0.2-0.1s0-0.1,0-0.2c0-0.1,0-0.1-0.1-0.2c0.1-0.1,0.1-0.1,0.1-0.2c0.1-0.1,0.2-0.1,0.2-0.2c0,0,0-0.1,0-0.2   c0.1,0,0.2,0,0.2-0.1l0,0c0.1,0.1,0.2,0.1,0.3,0.1s0.2,0,0.3-0.1l-0.1,0.1c0.2-0.1,0.4-0.1,0.5-0.1l0,0c0.1,0,0.1-0.1,0.1-0.1h0.1   c-0.1,0.1-0.2,0.1-0.2,0.2c0.1-0.1,0.2-0.1,0.2-0.2l0,0c0.1,0,0.1-0.1,0.1-0.2l0,0l0,0l0.1-0.1c0,0,0-0.1,0-0.2l-0.1-0.1   c0-0.1-0.1-0.1-0.2-0.1l0,0c-0.1-0.1-0.1-0.1-0.2-0.1h-0.1l0,0c-0.1,0-0.2,0-0.3,0.1s-0.2,0.1-0.2,0.2c-0.2,0-0.4,0.2-0.4,0.4l0,0   l0,0l0,0c0,0,0.1-0.1,0-0.1c0-0.1-0.1-0.1-0.1-0.1l0,0c0,0,0,0,0-0.1v0.1l0,0l0,0c-0.1-0.1-0.3,0-0.4,0.1v0.1h-0.1h-0.1   c0,0,0,0-0.1,0c0.2,0,0.3-0.3,0.3-0.5v-0.1c0.2,0,0.4-0.1,0.5-0.4c0-0.1,0-0.3-0.1-0.4l0.1-0.1l0,0c0,0.2,0.1,0.3,0.2,0.3   c0.1,0.1,0.3,0,0.3-0.1c0.1,0,0.2-0.1,0.2-0.1v-0.1l0,0c0,0.2,0,0.3,0.2,0.3s0.3-0.1,0.3-0.2c0.1,0,0.1,0,0.2,0   c0,0,0.1-0.1,0.2-0.2c0.1-0.1,0.1-0.2,0.1-0.3l0,0h0.1v-0.1l0,0c0-0.3-0.3-0.4-0.5-0.4h-0.1c0,0,0,0,0.1,0.1c-0.1,0-0.3,0-0.4,0.1   c-0.1,0-0.2,0.1-0.3,0.2c0,0.1,0,0.2,0,0.3c0,0,0,0-0.1,0l0,0c-0.1-0.1-0.3,0-0.3,0.1c0-0.1-0.1-0.1-0.2-0.2c-0.1,0-0.1,0-0.2,0   c-0.1,0-0.2,0.1-0.3,0.1v0.1c-0.2,0-0.4,0.1-0.5,0.4c0,0.1,0,0.3,0.1,0.4l0,0c-0.1,0-0.2,0.1-0.3,0.1c0-0.1,0-0.2,0-0.3   s0-0.2,0-0.3c-0.2-0.2-0.4-0.3-0.7-0.2c-0.2,0-0.3,0.3-0.3,0.5c-0.1,0.1-0.1,0.2-0.1,0.3c0-0.1-0.1-0.1-0.1-0.2   c-0.1,0.1-0.2,0.2-0.1,0.4c0,0,0,0-0.1,0c-0.1,0.2,0,0.4,0.1,0.4c0.1,0.1,0.2,0,0.3,0l0,0c0,0,0.1,0,0.1,0.1c0.3,0,0.4,0,0.5-0.1   C23.791,28.258,23.891,28.158,23.891,28.058z M29.891,28.558c0.1,0,0.2,0,0.3,0c0.1-0.2,0.2-0.3,0-0.5l0,0c0-0.1-0.1-0.1-0.2-0.2   h0.1l0.1-0.1l0,0c0.2-0.1,0.3-0.3,0-0.5c0-0.1-0.1-0.1-0.2-0.1l0,0l0,0c0.2-0.2,0.1-0.5-0.1-0.7c-0.1-0.1-0.2-0.1-0.3-0.1   s-0.2-0.1-0.4,0s-0.3,0.3-0.2,0.6c0.1,0.1,0.1,0.2,0.2,0.2c0.1,0.1,0.1,0.1,0.2,0.1l0,0h0.1c-0.1,0.2-0.1,0.4,0,0.5   c0,0.1,0.1,0.2,0.2,0.2l0,0c-0.1,0.1-0.2,0.2-0.1,0.3h-0.1l0,0c-0.1,0-0.1,0-0.2,0.1l0,0l0,0l0,0v-0.1c0-0.1,0-0.2-0.2-0.3   s-0.3,0-0.4,0.1v0.1c0,0,0,0,0,0.1v0.1c0,0-0.1,0-0.1,0.1s0,0.3,0.2,0.4c-0.2,0.1-0.1,0.2-0.1,0.4c0,0.1,0,0.2,0.1,0.2   c0.2,0.2,0.4,0.2,0.5,0c0.1-0.1,0.1-0.3,0.1-0.4l0,0c0,0,0,0,0.1,0c0,0.1,0,0.1,0,0.2c0,0,0,0,0.1,0c0.2,0,0.4-0.2,0.4-0.5   C29.991,28.758,29.891,28.658,29.891,28.558C29.891,28.658,29.891,28.658,29.891,28.558z M9.491,23.158L9.491,23.158   C9.491,23.158,9.491,23.058,9.491,23.158c-0.1-0.3-0.2-0.5-0.5-0.5c-0.2,0-0.5,0.2-0.5,0.5v0.1c0,0.2,0.2,0.4,0.4,0.5   c0.3,0,0.5-0.2,0.5-0.5C9.491,23.258,9.491,23.158,9.491,23.158L9.491,23.158z M14.891,23.158L14.891,23.158   C14.791,23.158,14.791,23.158,14.891,23.158c-0.1,0.1-0.2,0.1-0.2,0.2c0,0.1,0.1,0.2,0.2,0.2l0,0c0.1,0,0.2-0.1,0.2-0.2   C15.191,23.258,15.091,23.158,14.891,23.158C14.991,23.158,14.891,23.158,14.891,23.158L14.891,23.158z M26.391,31.158   c0-0.1,0-0.2,0-0.3c-0.1,0-0.1,0-0.2,0c0,0,0-0.1-0.1-0.1c0.1-0.1,0.1-0.1,0.2-0.2c0.2-0.2,0.1-0.5-0.1-0.6   c-0.1-0.1-0.1-0.1-0.2-0.1l0,0c-0.1,0-0.1-0.1-0.2-0.1l0,0c0-0.1,0-0.1,0-0.1l0,0c0,0,0,0,0-0.1c-0.1,0-0.2,0-0.2,0.1   s0,0.1,0.1,0.2c-0.1,0-0.1,0.1-0.2,0.1c-0.1,0.1-0.1,0.2-0.1,0.3c0.1,0,0.1,0,0.2,0c0,0,0,0,0,0.1l0,0c-0.1,0-0.2,0-0.2,0.1   c-0.3,0.1-0.4,0.4-0.2,0.6v0.1c0.2,0.2,0.4,0.3,0.7,0.2c0.1-0.1,0.1-0.1,0.2-0.2h0.1l0,0   C26.191,31.258,26.291,31.258,26.391,31.158z M16.491,6.958c0.2,0.1,0.3-0.1,0.3-0.2v-0.1l0.1-0.1c0-0.2-0.1-0.3-0.3-0.3   s-0.3,0.1-0.3,0.3v0.1c0,0,0,0,0,0.1C16.191,6.858,16.391,6.958,16.491,6.958z M16.791,22.758c0-0.3,0.2-0.5,0.5-0.6   c0.3,0,0.7,0.1,0.8,0.5c0,0.1,0,0.3,0,0.4l0,0c0.1,0,0.2-0.1,0.2-0.1c-0.1-0.2,0-0.3,0.2-0.4c0.2-0.1,0.3,0,0.3,0.1   c0.1,0,0.1,0.1,0.2,0.2c0,0.1,0,0.2-0.1,0.3v0.1c0.1,0.2,0.1,0.5-0.2,0.7c-0.1,0-0.1,0-0.2,0.1c-0.2,0.1-0.3,0-0.5-0.1   c0,0.1-0.1,0.4-0.3,0.5c-0.1,0-0.2,0-0.2,0s0,0,0.1,0l0,0c-0.1,0-0.1,0-0.2-0.1l0,0c0,0.1,0,0.2,0,0.2c0,0.2-0.3,0.3-0.5,0.2h-0.1   l0,0c0,0.1,0,0.2,0,0.2c0,0.1-0.1,0.2-0.3,0.1c-0.1,0.1-0.2,0-0.3,0c-0.2-0.1-0.2-0.3-0.1-0.4c0.1-0.1,0.2-0.2,0.4-0.1   c-0.2-0.2-0.1-0.5,0.1-0.6c0.2-0.1,0.4-0.1,0.5,0c0-0.2,0.1-0.3,0.3-0.4l0,0c-0.3,0-0.5-0.2-0.6-0.5   C16.691,22.858,16.791,22.858,16.791,22.758z M17.491,23.458c0.1,0,0.2,0,0.2,0.1c0,0,0,0,0.1,0c0-0.1,0-0.1,0-0.2   C17.691,23.358,17.691,23.458,17.491,23.458C17.591,23.458,17.491,23.458,17.491,23.458z M15.391,18.058c0.1,0,0.1,0,0.2,0l0,0l0,0   c0.1,0,0.1,0,0.2-0.1l0.1,0.2c0.1,0,0.1,0,0.2-0.1c0.1,0,0.1-0.1,0.1-0.1l-0.1-0.1c0,0,0.1,0,0.1-0.1c0,0,0,0,0,0.1   c0-0.1,0.1-0.1,0.1-0.2c0-0.3-0.2-0.5-0.5-0.5c0,0,0,0-0.1,0l0,0c-0.3-0.1-0.6,0.2-0.6,0.4   C15.091,17.758,15.191,17.958,15.391,18.058z M16.191,19.758c0,0,0.1-0.1,0.1-0.2c0,0,0,0,0.1,0c0.2-0.1,0.2-0.3,0.1-0.5   c0-0.1-0.1-0.1-0.1-0.2c0,0-0.1-0.1-0.2-0.1c-0.2,0-0.3,0.1-0.4,0.2c-0.1,0-0.1,0.1-0.2,0.1c-0.2,0.1-0.3,0.3-0.3,0.5   c0,0.3,0.3,0.4,0.5,0.4C16.091,19.958,16.191,19.858,16.191,19.758z M13.191,24.758L13.191,24.758c0.1-0.2,0.2-0.4,0.1-0.6   c-0.1-0.3-0.4-0.5-0.8-0.4c-0.2,0.1-0.3,0.2-0.4,0.3c-0.1,0.1-0.1,0.3-0.1,0.5c0.1,0.4,0.4,0.6,0.7,0.4   C12.991,24.958,13.091,24.858,13.191,24.758L13.191,24.758z M13.691,21.558c0.1,0.3,0.4,0.5,0.8,0.4c0.2-0.1,0.3-0.2,0.4-0.3   c0.1-0.1,0.1-0.3,0.1-0.4c-0.1-0.3-0.3-0.5-0.7-0.4l0,0c0,0,0,0-0.1,0C13.791,20.858,13.591,21.258,13.691,21.558z M19.391,28.758   c0.2-0.2,0.2-0.5,0.1-0.7c-0.1-0.1-0.2-0.2-0.4-0.2c-0.1,0-0.3,0-0.4,0.1c-0.3,0.2-0.3,0.5-0.1,0.7c0.2,0.3,0.4,0.3,0.6,0.2   C19.291,28.758,19.391,28.758,19.391,28.758z M19.491,20.158L19.491,20.158C19.391,20.058,19.391,20.158,19.491,20.158   L19.491,20.158L19.491,20.158c-0.2,0.3-0.2,0.5,0,0.6l0.1,0.1c-0.1,0.1-0.2,0.2-0.2,0.2c0,0.2,0.2,0.3,0.3,0.3h0.1l0,0l0,0   c0.1,0,0.2-0.1,0.2-0.2l0,0l0,0v-0.1c0-0.1,0-0.1-0.1-0.2c0,0,0,0,0.1,0v0.1v0.1v0.1v0.1l0,0c0,0.2,0.2,0.2,0.3,0.2h0.1   c0,0,0,0-0.1,0c-0.3,0-0.5,0.3-0.4,0.6c0,0.3,0.3,0.5,0.6,0.4l0,0l0,0c0.2,0,0.4-0.1,0.4-0.4v-0.1l0,0l0,0c0,0,0,0,0-0.1   c0,0,0,0,0-0.1c0,0,0,0,0-0.1c-0.1-0.1-0.2-0.2-0.3-0.3c0,0,0,0,0.1,0s0.2-0.2,0.1-0.3l0,0c0-0.1,0-0.1,0-0.2c0,0.1,0,0.1-0.1,0.1   v-0.1c0-0.1-0.1-0.1-0.1-0.1c0-0.1,0-0.1,0-0.2c0,0,0,0-0.1,0c0,0-0.1,0-0.2,0c0-0.1,0-0.2-0.1-0.4c0,0,0.1,0,0.1-0.1l0,0   c0,0.1,0,0.1,0.1,0.1s0.2-0.1,0.2-0.2c0.1,0,0.1,0,0.2,0c0.3,0,0.5-0.2,0.5-0.5s-0.2-0.5-0.5-0.5c0,0,0,0-0.1,0l0,0   c-0.3-0.1-0.5,0.1-0.5,0.4c-0.2-0.2-0.4-0.2-0.6,0c-0.2,0.1-0.2,0.2-0.2,0.3C19.291,19.858,19.291,19.958,19.491,20.158z    M19.891,14.158c0.1,0,0.1,0,0.2,0l0,0c0.2,0.1,0.4,0,0.5-0.2s0-0.4-0.2-0.5l0,0l-0.1-0.1c-0.2-0.1-0.4,0-0.5,0.2   S19.691,14.058,19.891,14.158z M12.191,21.858c0.2,0.2,0.5,0.1,0.7-0.1c0-0.1,0.1-0.1,0.1-0.2c0,0,0-0.1,0-0.2   c0-0.1-0.1-0.3-0.2-0.3c-0.2-0.2-0.5-0.1-0.7,0.1S11.891,21.658,12.191,21.858z M21.091,27.958c0.1-0.1,0.1-0.2,0.1-0.3   s0-0.1,0-0.2c0-0.1,0-0.1,0-0.2c0,0,0,0,0-0.1c-0.1-0.2-0.3-0.2-0.5,0h-0.1c-0.1,0.2-0.2,0.3-0.1,0.5c0,0.2,0.1,0.3,0.2,0.4   c-0.1,0-0.1,0-0.2-0.1c0,0,0-0.1-0.1-0.1c0,0.2,0.1,0.3,0.2,0.4C20.791,28.158,20.991,28.158,21.091,27.958z M7.891,22.158   c0-0.1-0.1-0.1-0.2-0.2c-0.2-0.1-0.4,0-0.4,0.2c-0.1,0.2,0,0.4,0.2,0.4c0,0,0,0,0.1,0l0,0c0.2,0,0.3-0.1,0.4-0.2   C7.991,22.258,7.991,22.158,7.891,22.158z M14.491,10.458L14.491,10.458C14.591,10.458,14.591,10.458,14.491,10.458   c0.2-0.1,0.4-0.2,0.3-0.3c-0.1-0.1-0.2-0.2-0.3-0.2c-0.1,0.1-0.1,0.1-0.1,0.2c0,0-0.1,0.1-0.1,0.2   C14.291,10.358,14.391,10.458,14.491,10.458z M4.891,16.058C4.891,16.158,4.891,16.158,4.891,16.058c0.1,0,0.2,0,0.2-0.1v-0.1   c0-0.1,0-0.1-0.1-0.2c-0.1-0.1-0.2-0.1-0.3,0v0.1C4.791,15.958,4.791,15.958,4.891,16.058C4.791,16.058,4.791,16.058,4.891,16.058   C4.791,16.058,4.791,16.058,4.891,16.058C4.791,16.058,4.791,16.058,4.891,16.058L4.891,16.058z M19.591,24.358   c-0.3,0.1-0.4,0.4-0.3,0.7c0.1,0.2,0.3,0.3,0.5,0.3c0,0,0,0,0.1,0c0.2,0,0.3-0.1,0.3-0.2c0.1-0.1,0.1-0.3,0.1-0.5   C20.191,24.458,19.891,24.258,19.591,24.358z M17.491,24.358c-0.1,0-0.1,0-0.2-0.1C17.391,24.358,17.391,24.358,17.491,24.358z    M15.091,22.758c0,0.1,0,0.2,0.1,0.3c0.2,0.2,0.3,0.3,0.5,0.3c0.1,0,0.1,0,0.2-0.1c0.2-0.2,0.3-0.3,0.3-0.5c0-0.1,0-0.1-0.1-0.2   c0-0.1-0.1-0.2-0.2-0.2c0,0,0,0,0-0.1l0,0c0-0.2-0.2-0.4-0.4-0.4s-0.4,0.2-0.4,0.4c0,0,0,0,0-0.1   C14.991,22.358,14.991,22.558,15.091,22.758L15.091,22.758z M15.591,18.758L15.591,18.758c0.2-0.1,0.3-0.3,0.2-0.4   c-0.1-0.2-0.3-0.3-0.4-0.2c-0.1,0.1-0.2,0.1-0.2,0.2c-0.1,0.1-0.1,0.2-0.1,0.3C15.191,18.858,15.391,18.858,15.591,18.758   C15.491,18.858,15.591,18.758,15.591,18.758z M11.291,22.758c0.1,0,0.2,0,0.3-0.1c0.1-0.2,0-0.3-0.1-0.4c-0.1,0-0.2,0-0.2,0   c-0.1,0-0.2,0.1-0.3,0.2c-0.1,0.2,0,0.3,0.2,0.4C11.191,22.758,11.291,22.758,11.291,22.758z M26.391,17.158   c-0.1,0.1-0.1,0.2,0,0.3c0,0,0.1,0.1,0.2,0c0,0,0.1,0.1,0.3,0c0.1-0.1,0.1-0.2,0-0.3s-0.2-0.1-0.2,0   C26.591,17.058,26.491,17.058,26.391,17.158z M18.191,13.658c0,0.1,0.1,0.2,0.2,0.2l0,0l0,0c0,0,0,0,0.1,0c0,0,0,0,0.1,0l0.1-0.1   c0-0.1-0.1-0.2-0.2-0.2l0,0l0,0C18.291,13.458,18.191,13.558,18.191,13.658z M9.991,16.958L9.991,16.958   C9.891,16.958,9.891,16.958,9.991,16.958c-0.2,0.1-0.2,0.2-0.1,0.3c0.1,0.1,0.2,0.1,0.3,0l0,0l0,0c0.1-0.1,0.1-0.2,0-0.3   C10.191,16.858,10.091,16.858,9.991,16.958z M24.191,31.258L24.191,31.258c0-0.1-0.2-0.1-0.3-0.1L24.191,31.258z M15.591,21.658   C15.591,21.558,15.591,21.558,15.591,21.658C15.691,21.558,15.691,21.558,15.591,21.658c0.2-0.1,0.2-0.3,0.1-0.4   c0-0.1-0.2-0.1-0.3,0l0,0l0,0c-0.1,0.1-0.1,0.2,0,0.3C15.391,21.658,15.491,21.658,15.591,21.658z M24.191,17.158   c-0.1,0.1,0,0.2,0.1,0.3c0.1,0,0.1,0,0.2,0c0.1,0,0.1,0,0.1-0.1s0-0.2-0.1-0.2c0,0,0-0.1-0.1-0.1   C24.391,17.058,24.191,17.058,24.191,17.158z M16.691,16.458h-0.1c-0.1,0-0.1,0.1-0.1,0.2l0,0l0,0c0,0.1,0.1,0.2,0.3,0.1   c0.1,0,0.2-0.1,0.1-0.3C16.891,16.558,16.791,16.458,16.691,16.458z M10.891,21.558c-0.1,0-0.1,0-0.2,0l0,0c-0.1,0-0.2,0-0.2,0.1   s0,0.2,0.1,0.2h0.1l0,0c0.1,0.1,0.2,0,0.3-0.1S10.991,21.558,10.891,21.558z M20.691,28.958c-0.1,0.1-0.2,0.2-0.3,0.4   c0,0.2,0,0.4,0.1,0.5l0.5,0.2c0-0.1,0.1-0.1,0.2-0.2c0.3-0.2,0.4-0.5,0.2-0.7C21.191,28.858,20.891,28.758,20.691,28.958z    M24.891,23.158c-0.1,0.1-0.2,0.2-0.3,0.2c-0.1,0.1-0.3,0.1-0.4-0.1c-0.2-0.1-0.2-0.3-0.2-0.5c0-0.1,0-0.2,0.1-0.2   c0.2-0.2,0.5-0.3,0.7-0.1l0.1,0.1c0-0.1,0.1-0.1,0.1-0.1h-0.1c0,0,0,0-0.1,0l0,0c-0.1,0-0.1,0-0.2-0.1c0-0.1,0-0.1,0-0.2v-0.1   c-0.1,0.1-0.2,0.2-0.4,0.2s-0.5-0.2-0.6-0.4l0,0c0,0.1,0,0.1-0.1,0.2c-0.1,0.1-0.4,0.1-0.5-0.1l0,0l0,0c-0.1-0.1-0.1-0.2,0-0.4   c0,0,0-0.1,0.1-0.1c0.1-0.1,0.3-0.1,0.4,0c0-0.3,0.2-0.5,0.4-0.5h-0.1c0,0,0,0-0.1,0c-0.1-0.1-0.2-0.3-0.1-0.4   c0.1-0.1,0.1-0.1,0.2-0.1l0,0c0-0.1,0-0.2,0.1-0.3c0,0,0,0,0.1,0l0,0c0,0,0,0,0.1,0l0,0c0,0,0.1,0,0.1,0.1s0,0.1,0,0.1s0,0,0,0.1   c0.2,0.1,0.2,0.3,0,0.5h-0.1h0.1l0,0l0,0c0.1,0,0.2,0,0.4,0.2c0.1,0,0.2,0,0.2,0.1c0-0.1-0.1-0.1-0.1-0.2c0.2,0.1,0.3,0.2,0.2,0.4   c0.1-0.1,0.4-0.1,0.6,0c0.3,0.2,0.4,0.4,0.2,0.7c0,0.1-0.1,0.2-0.2,0.2l0,0l0,0l0,0c-0.1,0-0.2,0.1-0.2,0.1l0,0l0,0   c0.1-0.1,0.3,0,0.4,0.2c0,0.1,0,0.1,0,0.2c0.1,0,0.2-0.1,0.3-0.1c0.2,0,0.3,0.2,0.3,0.4c-0.1,0.2-0.2,0.3-0.2,0.3   c-0.1,0.1-0.1,0.1-0.3,0.1s-0.3-0.2-0.3-0.3c0,0,0-0.1,0.1-0.1c0,0,0,0,0-0.1c0,0,0,0,0-0.1c0,0-0.1,0-0.1,0.1   c-0.1,0-0.2,0-0.2-0.1l0,0l0,0h-0.1C24.991,23.058,24.991,23.058,24.891,23.158z M24.691,21.158   C24.691,21.158,24.691,21.258,24.691,21.158C24.691,21.258,24.691,21.158,24.691,21.158z M24.891,22.558L24.891,22.558   C24.991,22.558,24.991,22.558,24.891,22.558C24.991,22.558,24.991,22.558,24.891,22.558z M29.391,21.758L29.391,21.758   C29.291,21.758,29.291,21.758,29.391,21.758c-0.3,0.1-0.3,0.3-0.2,0.5c0.1,0.1,0.2,0.2,0.3,0.2s0.2,0,0.4,0   c0.2-0.1,0.2-0.4,0.1-0.6S29.591,21.558,29.391,21.758z M23.091,17.658L23.091,17.658c0,0.1,0,0.1,0,0.1c0,0.2,0.1,0.4,0.3,0.5l0,0   c-0.2,0.2-0.2,0.4-0.1,0.6c0.1,0.2,0.4,0.3,0.6,0.2c0.1,0,0.1,0,0.2-0.1c0.1-0.1,0.2-0.2,0.2-0.3s0-0.3-0.1-0.4   c-0.1-0.1-0.2-0.2-0.4-0.2c0,0,0.1-0.1,0.1-0.2c0-0.2-0.1-0.4-0.3-0.5C23.391,17.358,23.191,17.458,23.091,17.658z M18.491,12.458   L18.491,12.458C18.491,12.558,18.491,12.558,18.491,12.458c0,0.2,0.2,0.3,0.3,0.3s0.2-0.2,0.2-0.3c0-0.2-0.2-0.3-0.3-0.2l0,0l0,0   C18.591,12.258,18.491,12.358,18.491,12.458z M8.891,18.958c0.1,0.1,0.2,0,0.3,0c0-0.1,0-0.2,0-0.2c0-0.1,0-0.1-0.1-0.2   c-0.1,0-0.2,0-0.3,0.1s0,0.2,0,0.2C8.891,18.858,8.891,18.858,8.891,18.958z M23.591,29.658c0.1,0.2-0.1,0.4-0.2,0.5   c0,0.2-0.1,0.3-0.3,0.4c-0.1,0.1-0.1,0.1-0.2,0.1l0,0c-0.3,0.1-0.5,0-0.7-0.2l0,0l-0.2-0.1c0-0.1,0.1-0.1,0.1-0.1   c0-0.2,0.1-0.4,0.3-0.5c0,0,0.1-0.1,0.2-0.1l0,0c0-0.1,0.1-0.1,0.2-0.1l0,0c0-0.2,0.2-0.3,0.3-0.3   C23.291,29.258,23.491,29.458,23.591,29.658z M22.891,29.558L22.891,29.558C22.891,29.658,22.891,29.658,22.891,29.558   L22.891,29.558z M24.591,31.158l-0.1,0.1l0,0c0,0-0.1,0-0.1,0.1l0.3,0.1v0.1l0.3,0.1c0.2-0.1,0.2-0.2,0.1-0.4   C24.991,31.058,24.791,31.058,24.591,31.158z M26.491,28.858C26.491,28.858,26.591,28.858,26.491,28.858   C26.591,28.858,26.491,28.858,26.491,28.858z M26.991,22.958L26.991,22.958c0.1,0.1,0.2,0.1,0.3,0c0-0.2,0-0.3,0-0.3h-0.1l0,0l0,0   l0,0c-0.1,0-0.2,0-0.2,0.1C26.891,22.758,26.891,22.858,26.991,22.958L26.991,22.958z M12.791,25.258c-0.1,0-0.2,0-0.2,0.1v0.1l0,0   c0,0.1,0,0.2,0.1,0.2s0.2,0,0.2-0.1c0.1,0,0.1-0.1,0.1-0.1C12.891,25.358,12.891,25.258,12.791,25.258z M19.391,29.158   c-0.1,0-0.1,0-0.2,0.1l0.5,0.3C19.791,29.258,19.691,29.158,19.391,29.158z M13.591,20.258c0.1,0,0.1,0,0.2,0   c0.1-0.1,0.1-0.2,0-0.3c0,0,0,0-0.1,0l0,0c0,0,0,0-0.1,0l0,0c-0.1,0-0.2,0-0.2,0c-0.1,0.1-0.1,0.2,0,0.3l0,0l0,0   C13.491,20.258,13.591,20.258,13.591,20.258L13.591,20.258z M22.991,14.958C22.991,14.958,22.991,15.058,22.991,14.958   c0,0.1,0,0.1,0.1,0.1c0,0,0.1,0.1,0.2,0.1c0.1,0,0.2-0.1,0.2-0.2c0-0.1-0.1-0.1-0.1-0.1h-0.1   C23.091,14.758,22.991,14.858,22.991,14.958L22.991,14.958L22.991,14.958z M24.891,30.058   C24.991,30.158,24.991,30.158,24.891,30.058L24.891,30.058C24.991,30.058,24.991,30.058,24.891,30.058c0.1-0.1,0.1-0.1,0-0.1   c0,0-0.1,0-0.1,0.1S24.791,30.158,24.891,30.058z M26.191,29.058c0.1,0,0.1,0,0.1-0.1c0,0,0-0.1-0.1-0.1l0,0   c-0.2-0.1-0.2-0.1-0.2,0s0,0.1,0.1,0.1l0,0C26.091,28.958,26.091,29.058,26.191,29.058z M25.191,29.258v0.1h0.1v-0.1   C25.291,29.258,25.291,29.158,25.191,29.258z M24.191,29.158c0,0.1,0,0.1,0,0.1c0.1,0,0.1,0,0.1,0c0-0.1,0-0.1,0-0.1   C24.291,29.058,24.191,29.158,24.191,29.158z M24.191,30.658c-0.1,0-0.1,0.1-0.1,0.1l0.1,0.1l0,0l0,0l0,0c0.1,0,0.1-0.1,0.1-0.1   C24.291,30.658,24.191,30.658,24.191,30.658z M28.091,30.958c0-0.1,0-0.1-0.1-0.1s-0.1,0-0.1,0v0.1   C27.991,30.958,27.991,30.958,28.091,30.958z M28.091,29.258c0-0.1-0.1-0.1-0.1-0.1l-0.1,0.1l0,0c0,0.1,0,0.1,0,0.1h0.1   C28.091,29.358,28.091,29.258,28.091,29.258z M29.291,30.058c-0.1,0-0.1,0-0.1,0.1s0,0.1,0.1,0.1s0.1,0,0.1-0.1   S29.291,30.058,29.291,30.058z M28.491,27.658h-0.1v0.1h0.1C28.491,27.758,28.491,27.758,28.491,27.658z M28.291,30.358   c0.1,0.1,0.3,0.1,0.4,0l0,0c0,0,0.1,0,0.1-0.1c0.1-0.1,0.1-0.2,0-0.5c-0.1-0.1-0.4-0.1-0.5,0c0,0-0.1,0.1-0.1,0.2   C28.191,30.158,28.191,30.258,28.291,30.358z M26.991,31.658L26.991,31.658C27.091,31.658,27.091,31.558,26.991,31.658   C27.091,31.558,27.091,31.558,26.991,31.658c0.1-0.1,0.2-0.1,0.3-0.2c0.1-0.1,0.1-0.3-0.2-0.6c-0.1-0.1-0.1-0.1-0.2-0.1l0,0l0,0   h-0.1v-0.1h-0.1v0.1c0,0.1-0.1,0.1-0.1,0.1c-0.2,0.1-0.2,0.2-0.1,0.4v0.1h-0.1c-0.1,0.1-0.1,0.4,0,0.5s0.1,0.1,0.2,0.1l0,0   c0.1,0.1,0.2,0.1,0.3,0.1h0.1c0,0,0,0,0.1,0c0.1-0.1,0.1-0.2,0.1-0.4C27.091,31.658,27.091,31.658,26.991,31.658z M30.491,32.058   c-0.1-0.1-0.3,0-0.4,0.1c-0.1,0.1,0,0.3,0.1,0.4c0,0,0,0,0.1,0c0.1-0.1,0.2-0.2,0.3-0.3C30.591,32.158,30.591,32.058,30.491,32.058   z M21.191,29.958c-0.1,0-0.2,0-0.2,0.1l0.4,0.2C21.391,30.058,21.291,29.958,21.191,29.958z M18.291,26.058c0,0.4-0.1,0.6-0.3,0.7   l0,0c-0.2,0.1-0.3,0.2-0.6,0c-0.2-0.2-0.3-0.4-0.1-0.7c0.2-0.2,0.3-0.2,0.5-0.2l0,0c-0.1-0.1,0-0.2,0-0.2l0,0c0,0,0,0,0-0.1   c0.1-0.1,0.2,0,0.3,0c0.1,0.1,0,0.2,0,0.2s0,0,0.1,0C18.291,25.858,18.291,25.958,18.291,26.058z M17.891,25.858L17.891,25.858   L17.891,25.858L17.891,25.858z M17.991,25.958L17.991,25.958L17.991,25.958L17.991,25.958z M17.891,25.858L17.891,25.858   L17.891,25.858L17.891,25.858z M28.291,27.158c0-0.2-0.1-0.3-0.2-0.4c0,0,0,0,0-0.1h-0.1l0,0c-0.2,0-0.3,0.1-0.3,0.3l0,0l0,0   c-0.1,0-0.1,0.1-0.1,0.1c0,0.1,0.1,0.1,0.1,0.1l0,0c0,0.1,0.1,0.2,0.3,0.2c0.1,0,0.1,0,0.2-0.1   C28.191,27.358,28.291,27.258,28.291,27.158z M30.891,27.958l-0.1-0.5h-0.1c0,0-0.1,0.1-0.1,0.3   C30.591,27.858,30.791,27.958,30.891,27.958z M22.291,27.158C22.291,27.158,22.191,27.158,22.291,27.158c-0.2,0-0.3,0.1-0.3,0.2   c0,0.2,0.1,0.3,0.2,0.2l0,0c0,0,0,0,0.1,0s0.2-0.1,0.2-0.2C22.491,27.358,22.391,27.258,22.291,27.158L22.291,27.158z    M27.191,26.458c0,0.1,0,0.1,0.1,0.1s0.1,0,0.1-0.1s0-0.1-0.1-0.1S27.191,26.458,27.191,26.458z M27.491,26.858   c-0.1,0-0.1,0-0.1,0.1s0,0.1,0.1,0.1s0.1,0,0.1-0.1C27.591,26.858,27.591,26.858,27.491,26.858z M27.691,26.558   c0-0.1,0-0.1-0.1-0.1s-0.1,0-0.1,0.1s0,0.1,0.1,0.1S27.691,26.658,27.691,26.558z M27.391,26.458c0,0.1,0,0.1,0.1,0.1   s0.1,0,0.1-0.1s0-0.1-0.1-0.1C27.491,26.358,27.391,26.358,27.391,26.458z M27.091,27.158v0.1h0.1v-0.1   C27.191,27.158,27.091,27.058,27.091,27.158z M27.891,26.458c0,0.1,0.1,0.1,0.1,0.1c0.1,0,0.1-0.1,0.1-0.1l-0.1-0.1   C27.891,26.358,27.891,26.458,27.891,26.458z M27.391,25.958c-0.1,0-0.1,0.1-0.1,0.1l0.1,0.1c0.1,0,0.1-0.1,0.1-0.1L27.391,25.958z    M29.291,32.158C29.191,32.158,29.191,32.258,29.291,32.158L29.291,32.158z M26.291,24.858c0,0.1,0,0.1-0.1,0.2   c-0.2,0.2-0.3,0.3-0.5,0.3c-0.1,0-0.1,0-0.2-0.1c-0.2-0.2-0.3-0.3-0.3-0.5c0-0.1,0-0.1,0.1-0.2c0-0.1,0.1-0.2,0.2-0.2   c0,0,0,0-0.1,0c-0.2-0.1-0.3-0.4-0.2-0.6c0.1-0.2,0.4-0.3,0.6-0.2c0.2,0.1,0.3,0.4,0.2,0.6c0,0.1-0.1,0.2-0.1,0.2h0.1   C26.191,24.558,26.291,24.658,26.291,24.858z M25.891,24.358C25.891,24.358,25.791,24.358,25.891,24.358   C25.791,24.358,25.791,24.358,25.891,24.358C25.791,24.358,25.791,24.358,25.891,24.358z M21.191,21.758c-0.1,0.1-0.1,0.2-0.1,0.3   s0,0.1,0.1,0.2c-0.1,0-0.2,0-0.3,0.1s-0.1,0.2-0.1,0.3s0,0.2,0.1,0.3s0.3,0.1,0.4,0.1l0,0v0.1c-0.1,0.1,0,0.3,0.1,0.3   c0,0,0.1,0,0.1,0.1c-0.1,0.1-0.1,0.2-0.1,0.2c0.1,0,0.1,0,0.1,0.1l0,0h-0.1c0,0,0,0-0.1-0.1c-0.2-0.1-0.4-0.1-0.5,0   c-0.3,0.1-0.4,0.5-0.2,0.6c0.1,0.1,0.2,0.2,0.3,0.2l0,0l0.1,0.1h0.1c-0.1,0-0.1,0-0.1,0h-0.1c-0.2,0.1-0.2,0.2-0.1,0.4   c0,0-0.1,0-0.1,0.1c-0.1,0.1-0.1,0.2-0.1,0.3h0.1v0.1l0,0h-0.1c-0.1,0-0.1,0-0.2,0.1c-0.1,0.1-0.1,0.2-0.1,0.3   c-0.1-0.1-0.2-0.1-0.2,0c-0.1,0-0.1,0-0.1,0c-0.1,0.1,0,0.2,0,0.2h0.1c0,0,0.1,0.1,0.2,0.1l0,0l0.1,0.1c0.1,0,0.2-0.1,0.2-0.1   c0.1,0,0.2,0.1,0.4,0.2c0.1-0.1,0.1-0.3,0.1-0.4c0.1,0,0.2-0.1,0.2-0.1c0.1-0.1,0.1-0.2,0-0.4c0.1,0.1,0.2,0.2,0.5,0.3   c0.1,0,0.2-0.1,0.3-0.2c0,0,0,0,0.1,0c-0.1,0.2-0.1,0.4,0,0.5c0,0.2,0.2,0.3,0.4,0.3c-0.1,0.1-0.1,0.2-0.1,0.3   c0.1,0.3,0.3,0.4,0.5,0.4c0.3-0.1,0.4-0.3,0.4-0.5c0,0-0.1-0.1-0.2-0.2l-0.1-0.1h-0.1c0.1-0.1,0.1-0.3,0-0.5l0,0c0,0,0-0.1-0.1-0.1   c0.1-0.1,0.1-0.1,0.1-0.2l0,0c0,0,0.1,0,0.1-0.1c0,0.1,0.1,0.1,0.1,0.1h-0.1c0.1,0.1,0.2,0.2,0.4,0.2c0.2-0.1,0.3-0.2,0.2-0.3   c0-0.1,0-0.1,0-0.2c-0.1-0.2-0.2-0.2-0.3-0.2s-0.2,0-0.2,0v0.1h-0.1c0,0,0,0,0-0.1c0,0,0-0.1-0.1-0.1c-0.1-0.1-0.3,0-0.3,0.1l0,0   h-0.1h-0.1v0.1c0-0.2-0.2-0.4-0.5-0.5c-0.1,0-0.4,0.1-0.5,0.3l0,0l0,0c0.2,0,0.5-0.2,0.5-0.5c0.1,0,0.1,0,0.2,0   c0.2,0,0.4-0.2,0.4-0.4c0-0.1-0.1-0.3-0.2-0.4c-0.1-0.1-0.3-0.2-0.4-0.2c0,0,0,0,0-0.1l0,0c0.1-0.1,0-0.2,0-0.3l0,0   c0,0,0-0.1-0.1-0.1s-0.1,0-0.2,0c0.1-0.1,0.1-0.2,0-0.3c0.1,0,0.3,0,0.4-0.2c0.1-0.1,0.2-0.2,0.2-0.3s0-0.2-0.1-0.3c0,0,0,0,0.1,0   s0.2-0.2,0.2-0.3s-0.2-0.2-0.3-0.2l0,0l0,0c-0.1,0-0.2,0.1-0.2,0.2l0,0c0,0,0,0,0,0.1l0,0h-0.1   C21.491,21.558,21.291,21.658,21.191,21.758z M19.191,18.058c0.1-0.1,0.1-0.3,0-0.5c0-0.1-0.1-0.1-0.1-0.2   c-0.2-0.1-0.4-0.1-0.5,0.1c0,0.1-0.1,0.1-0.1,0.2c0,0.2,0,0.3,0.2,0.4C18.791,18.358,18.991,18.258,19.191,18.058z M17.391,25.458   h0.1c0.2,0,0.3-0.2,0.3-0.4c0,0,0,0,0-0.1l0,0l0,0l0,0c-0.1-0.2-0.3-0.3-0.5-0.3s-0.4,0.3-0.3,0.5   C16.991,25.358,17.191,25.458,17.391,25.458z M26.891,24.258c0.3,0,0.5-0.3,0.5-0.6v-0.1c0-0.3-0.1-0.4-0.4-0.5l0,0h-0.1l0,0   c0,0,0,0-0.1,0c-0.3,0-0.6,0.3-0.5,0.7C26.191,24.058,26.491,24.258,26.891,24.258z M28.591,20.758c-0.1-0.1-0.2-0.2-0.4-0.2   c-0.1,0-0.1,0-0.2,0v-0.1v-0.1l0,0l0,0c0-0.1-0.1-0.3-0.1-0.4l0,0l-0.1-0.1c-0.1-0.1-0.2,0-0.3,0s-0.2,0.1-0.2,0.1v0.1   c-0.2,0-0.3,0.1-0.3,0.2c0,0.1,0,0.1,0,0.2c0,0.1,0.1,0.2,0.2,0.3c0.1,0,0.2,0,0.2-0.1c0.1,0.1,0.2,0.1,0.3,0.1   c-0.1,0.1-0.1,0.1-0.1,0.2v0.1c-0.1,0.2,0,0.4,0.3,0.5c0.3,0.2,0.6,0.1,0.7-0.2c0,0,0,0,0-0.1c0.1,0.2,0.4,0.3,0.5,0.3   c0.3,0,0.4-0.2,0.4-0.3c0.1-0.1,0.2-0.3,0.2-0.5c0-0.3-0.3-0.5-0.6-0.6c-0.2,0-0.4,0.1-0.5,0.3   C28.591,20.658,28.591,20.658,28.591,20.758z M26.091,18.258L26.091,18.258c-0.1,0-0.1,0.1-0.2,0.1c-0.2,0.3-0.2,0.6,0.1,0.9l0,0   c0.1,0.1,0.3,0.2,0.5,0.2c0.1,0,0.2,0,0.3-0.1c0.1,0,0.2,0,0.3-0.1s0.2-0.2,0.2-0.3s0-0.2-0.1-0.3c0-0.1-0.1-0.1-0.2-0.2l0,0   c0.2,0,0.3-0.1,0.4-0.2v-0.1c0.1,0.1,0.1,0.1,0.3,0.1s0.5-0.1,0.5-0.4l0,0l0,0c0-0.3-0.1-0.5-0.4-0.6c-0.3,0-0.5,0.1-0.6,0.4   c0,0.1,0,0.1,0,0.2l0,0c-0.1-0.1-0.3,0-0.4,0.1c-0.1,0-0.1,0.1-0.2,0.2c0,0.1,0.1,0.1,0.1,0.2   C26.491,18.058,26.291,18.058,26.091,18.258z M28.591,14.758c-0.1,0-0.1,0-0.2,0c0,0,0,0,0,0.1c0,0,0,0-0.1,0v-0.1c0,0,0,0,0.1-0.1   c0.1-0.2,0-0.4-0.1-0.4c-0.1-0.1-0.3-0.1-0.4,0.1c0,0-0.1,0.1-0.1,0.2l0,0c-0.1,0.1,0,0.3,0.1,0.4h0.1c0,0-0.1,0.1-0.1,0.2   c-0.1,0.2,0.1,0.5,0.4,0.6c0.1,0.1,0.3,0,0.4-0.1c0.1-0.1,0.2-0.2,0.3-0.4C28.891,15.158,28.791,14.858,28.591,14.758z    M18.191,6.158c0.1,0.1,0.2,0.1,0.3,0s0.2-0.3,0.1-0.4l0,0l0,0c-0.1-0.1-0.3-0.2-0.4-0.1c-0.1,0.1-0.2,0.3-0.1,0.4   C18.091,6.058,18.091,6.158,18.191,6.158z M29.991,20.358l-0.1-0.5c-0.1-0.2-0.2-0.1-0.2,0.1S29.791,20.258,29.991,20.358z    M28.991,17.458c0.1,0.1,0.3,0.2,0.5,0.1c0,0,0.1-0.1,0.1-0.2l-0.1-0.1h0.1h0.1l-0.1-0.5c-0.1-0.1-0.2,0-0.2,0.1   c-0.1,0-0.2,0-0.3,0.1C28.991,17.058,28.891,17.258,28.991,17.458z M20.191,11.158c0.1-0.1,0.1-0.2,0-0.3c0,0,0,0-0.1,0l0,0   c0,0-0.1-0.1-0.2,0l0,0l0,0c-0.1,0.1-0.1,0.2,0,0.3S20.091,11.258,20.191,11.158z M27.491,17.158c0.2-0.1,0.2-0.4,0.1-0.6   c-0.1-0.2-0.4-0.2-0.6-0.1c-0.2,0.1-0.2,0.4-0.1,0.6C27.091,17.258,27.291,17.358,27.491,17.158z M24.991,16.058L24.991,16.058   L24.991,16.058c0,0.1-0.1,0.1-0.1,0.1c-0.1,0.1-0.1,0.2-0.1,0.3l0,0c0,0.1,0,0.1,0.1,0.2c0.1,0.2,0.3,0.2,0.5,0.1c0,0,0,0,0.1,0   h0.1v-0.1v-0.1c0-0.1,0-0.2-0.1-0.3v-0.1h-0.1C25.291,15.958,25.091,15.958,24.991,16.058z M22.891,15.758c0,0.1,0.2,0.1,0.3,0l0,0   v0.1c0,0.1,0,0.1,0.1,0.2c0.1,0.2,0.2,0.3,0.4,0.3c-0.1,0.1-0.1,0.3,0,0.4c0.1,0.2,0.4,0.2,0.5,0.1l0,0h0.1   c0.1-0.1,0.2-0.3,0.1-0.4l0,0l0,0c-0.1-0.1-0.2-0.1-0.3-0.1c0.1-0.1,0.2-0.2,0.2-0.3c0,0,0,0.1,0.1,0.1s0.1,0,0.1-0.1   s0-0.1-0.1-0.1h-0.1c0-0.2-0.1-0.3-0.2-0.5c-0.2-0.2-0.5-0.1-0.7,0.1l-0.1-0.1c-0.1-0.1-0.3-0.1-0.4,0.1   C22.691,15.558,22.691,15.658,22.891,15.758z M26.991,21.258c0-0.1-0.2-0.2-0.3-0.2l0,0l0,0l0,0c0,0-0.1,0-0.2,0   c-0.2,0.1-0.3,0.2-0.3,0.4c0.1,0.2,0.2,0.3,0.4,0.3c0.1,0,0.1-0.1,0.1-0.1l0,0C26.891,21.558,26.991,21.358,26.991,21.258z    M28.891,20.058c0.1,0.1,0.3,0.1,0.4-0.1c0.1-0.1,0.1-0.2,0-0.3c0-0.1-0.1-0.2-0.1-0.3c-0.1,0-0.3,0-0.4,0.1c-0.1,0.1,0,0.2,0,0.2   C28.791,19.858,28.791,20.058,28.891,20.058z M27.391,11.458c0.1,0,0.2,0,0.2-0.2l0,0v-0.1c0-0.1-0.1-0.3-0.2-0.3   c-0.1,0-0.2,0.1-0.3,0.2c0,0.1,0,0.2,0.1,0.2C27.291,11.458,27.391,11.458,27.391,11.458z M24.191,7.758h0.1c0.1,0,0.1-0.1,0.1-0.2   l0,0l0,0c0-0.1-0.1-0.2-0.2-0.2c-0.1,0-0.2,0.1-0.2,0.2C23.991,7.658,24.091,7.758,24.191,7.758z M25.791,15.758h0.1v-0.1h-0.1   V15.758z M25.391,15.558v0.1h0.1v-0.1C25.491,15.558,25.491,15.558,25.391,15.558z M25.491,16.158   C25.591,16.158,25.591,16.058,25.491,16.158L25.491,16.158z M25.791,15.958v0.1h0.1v-0.1   C25.891,15.958,25.891,15.958,25.791,15.958z M26.291,15.158v-0.1h-0.1v0.1C26.191,15.258,26.291,15.258,26.291,15.158z    M25.491,15.158c0.1,0,0.1-0.1,0.1-0.1c0-0.1-0.1-0.1-0.1-0.1c-0.1,0-0.1,0.1-0.1,0.1C25.391,15.158,25.491,15.158,25.491,15.158z    M24.991,15.458v0.1h0.1v-0.1C24.991,15.358,24.991,15.358,24.991,15.458z M25.891,16.558c0,0.1,0.1,0.1,0.1,0.1s0,0,0.1-0.1l0,0   l0,0c0,0,0,0,0-0.1s-0.1-0.1-0.1-0.1C25.891,16.458,25.891,16.558,25.891,16.558z M26.491,16.258v-0.1h-0.1v0.1   C26.391,16.358,26.491,16.358,26.491,16.258z M26.491,15.658c0.1,0,0.1-0.1,0.1-0.1c0-0.1-0.1-0.1-0.1-0.1c-0.1,0-0.1,0.1-0.1,0.1   C26.391,15.658,26.491,15.658,26.491,15.658z M26.991,14.958v-0.1h-0.1v0.1C26.891,14.958,26.891,14.958,26.991,14.958z    M25.791,14.258c-0.1,0-0.1,0-0.1,0.1s0,0.1,0.1,0.1s0.1,0,0.1-0.1C25.891,14.358,25.891,14.258,25.791,14.258z M24.691,14.658v0.1   h0.1v-0.1C24.791,14.658,24.791,14.658,24.691,14.658z M24.591,16.658h-0.1v0.1h0.1l0,0c0,0,0,0,0.1,0c0,0,0,0-0.1,0   C24.691,16.758,24.691,16.758,24.591,16.658z M25.591,17.358c0,0.1,0,0.1,0.1,0.1s0.1,0,0.1-0.1s0-0.1-0.1-0.1   C25.691,17.258,25.691,17.258,25.591,17.358z M26.691,17.058h0.1v-0.1h-0.1l0,0C26.691,16.858,26.691,16.958,26.691,17.058   C26.691,16.958,26.691,16.958,26.691,17.058C26.691,16.958,26.691,16.958,26.691,17.058C26.691,16.958,26.691,16.958,26.691,17.058   C26.691,16.958,26.691,16.958,26.691,17.058C26.691,16.958,26.691,16.958,26.691,17.058z" fill="#453F83"/> </g> </g></g><g transform="translate(124 153) scale(1 1) rotate(0 122.04 96)"><path fill="#FFFFFF" stroke="#FFFFFF" d="M22.65 101.00L4.55 101.10Q4.04 101.10 4.04 100.59L4.04 100.59L4.25 31.14Q4.25 30.73 4.65 30.73L4.65 30.73L23.56 30.63Q29.12 30.53 33.72 33.26Q38.32 35.99 41.05 40.59Q43.78 45.19 43.78 50.75L43.78 50.75L43.78 79.77Q43.78 85.63 40.95 90.43Q38.11 95.24 33.36 98.07Q28.61 100.90 22.65 101.00L22.65 101.00ZM16.48 42.87L16.38 88.66L22.65 88.66Q26.39 88.66 28.97 86.04Q31.54 83.41 31.54 79.77L31.54 79.77L31.54 50.65Q31.54 47.42 29.17 45.04Q26.79 42.66 23.56 42.77L23.56 42.77L16.48 42.87ZM84.82 101.10L52.17 101.10Q51.76 101.10 51.76 100.59L51.76 100.59L51.86 31.14Q51.86 30.73 52.27 30.73L52.27 30.73L84.72 30.73Q85.13 30.73 85.13 31.24L85.13 31.24L85.13 42.56Q85.13 42.97 84.72 42.97L84.72 42.97L64.00 42.97L64.00 58.74L84.72 58.74Q85.13 58.74 85.13 59.14L85.13 59.14L85.23 70.57Q85.23 70.97 84.82 70.97L84.82 70.97L64.00 70.97L64.00 88.66L84.82 88.66Q85.23 88.66 85.23 89.17L85.23 89.17L85.23 100.70Q85.23 101.10 84.82 101.10L84.82 101.10ZM117.78 101.10L105.55 101.10Q105.14 101.10 105.04 100.59L105.04 100.59L91.09 31.14Q90.99 30.73 91.50 30.73L91.50 30.73L102.92 30.73Q103.32 30.73 103.43 31.14L103.43 31.14L111.72 77.44L119.80 31.14Q119.90 30.73 120.31 30.73L120.31 30.73L131.63 30.73Q132.14 30.73 132.04 31.14L132.04 31.14L118.29 100.59Q118.19 101.10 117.78 101.10L117.78 101.10Z"/></g><g transform="translate(-101 139) scale(1 1) rotate(0 122.04 51)"><path fill="#000000" stroke="#000000" d="M8.02 51.10L2.25 51.10Q2.04 51.10 2.04 50.84L2.04 50.84L2.15 15.74Q2.15 15.53 2.35 15.53L2.35 15.53L8.58 15.53Q8.79 15.53 8.94 15.74L8.94 15.74L13.59 22.48L18.24 15.74Q18.40 15.53 18.60 15.53L18.60 15.53L24.89 15.53Q25.09 15.53 25.09 15.74L25.09 15.74L25.19 50.84Q25.19 51.10 24.99 51.10L24.99 51.10L19.21 51.10Q19.01 51.10 19.01 50.84L19.01 50.84L18.96 24.78L13.59 32.55L8.28 24.78L8.23 50.84Q8.23 51.10 8.02 51.10L8.02 51.10ZM38.94 51.61L38.94 51.61Q36.18 51.61 33.90 50.21Q31.63 48.80 30.25 46.48Q28.87 44.15 28.87 41.34L28.87 41.34L28.92 25.14Q28.92 22.33 30.28 20.03Q31.63 17.73 33.93 16.35Q36.23 14.97 38.94 14.97L38.94 14.97Q41.70 14.97 43.95 16.35Q46.19 17.73 47.55 20.03Q48.90 22.33 48.90 25.14L48.90 25.14L48.95 41.34Q48.95 44.15 47.60 46.48Q46.25 48.80 43.97 50.21Q41.70 51.61 38.94 51.61ZM38.94 45.43L38.94 45.43Q40.47 45.43 41.62 44.18Q42.77 42.92 42.77 41.34L42.77 41.34L42.72 25.14Q42.72 23.45 41.65 22.28Q40.57 21.10 38.94 21.10L38.94 21.10Q37.35 21.10 36.23 22.25Q35.11 23.40 35.11 25.14L35.11 25.14L35.11 41.34Q35.11 43.03 36.23 44.23Q37.35 45.43 38.94 45.43ZM58.41 51.10L53.30 51.10Q52.89 51.10 52.89 50.74L52.89 50.74L52.84 15.94Q52.84 15.53 53.25 15.53L53.25 15.53L57.85 15.53L66.48 35.67L66.23 15.94Q66.23 15.53 66.69 15.53L66.69 15.53L71.74 15.53Q72.05 15.53 72.05 15.94L72.05 15.94L72.10 50.79Q72.10 51.10 71.85 51.10L71.85 51.10L67.35 51.10L58.51 32.30L58.87 50.69Q58.87 51.10 58.41 51.10L58.41 51.10ZM82.53 51.10L76.75 51.10Q76.55 51.10 76.55 50.84L76.55 50.84L76.65 15.79Q76.65 15.53 76.85 15.53L76.85 15.53L82.58 15.53Q82.78 15.53 82.78 15.79L82.78 15.79L82.78 27.90L90.80 15.74Q90.96 15.53 91.16 15.53L91.16 15.53L97.04 15.53Q97.24 15.53 97.14 15.74L97.14 15.74L88.30 29.84L98.21 50.90Q98.32 51.10 97.96 51.10L97.96 51.10L91.72 51.10Q91.47 51.10 91.42 50.90L91.42 50.90L84.52 35.87L82.73 38.68L82.73 50.84Q82.73 51.10 82.53 51.10L82.53 51.10ZM107.26 51.61L107.26 51.61Q104.50 51.61 102.23 50.21Q99.95 48.80 98.60 46.48Q97.24 44.15 97.24 41.34L97.24 41.34L97.24 38.99Q97.24 38.73 97.50 38.73L97.50 38.73L103.22 38.73Q103.43 38.73 103.43 38.99L103.43 38.99L103.43 41.34Q103.43 43.03 104.55 44.23Q105.67 45.43 107.26 45.43L107.26 45.43Q108.84 45.43 109.97 44.20Q111.09 42.98 111.09 41.34L111.09 41.34Q111.09 39.45 108.64 38.07L108.64 38.07Q107.82 37.61 106.08 36.64Q104.35 35.67 102.81 34.80L102.81 34.80Q100.00 33.16 98.65 30.69Q97.29 28.21 97.29 25.09L97.29 25.09Q97.29 22.23 98.67 19.95Q100.05 17.68 102.33 16.35Q104.60 15.02 107.26 15.02L107.26 15.02Q109.97 15.02 112.24 16.38Q114.52 17.73 115.87 20.01Q117.22 22.28 117.22 25.09L117.22 25.09L117.22 29.28Q117.22 29.48 117.02 29.48L117.02 29.48L111.30 29.48Q111.09 29.48 111.09 29.28L111.09 29.28L111.04 25.09Q111.04 23.30 109.92 22.18Q108.79 21.05 107.26 21.05L107.26 21.05Q105.67 21.05 104.55 22.25Q103.43 23.45 103.43 25.09L103.43 25.09Q103.43 26.78 104.14 27.90Q104.86 29.02 106.75 30.05L106.75 30.05Q107.00 30.20 107.74 30.58Q108.49 30.97 109.35 31.45Q110.22 31.94 110.91 32.30Q111.60 32.65 111.76 32.76L111.76 32.76Q114.31 34.19 115.79 36.26Q117.27 38.33 117.27 41.34L117.27 41.34Q117.27 44.25 115.92 46.58Q114.57 48.90 112.29 50.26Q110.02 51.61 107.26 51.61Z"/></g>
              </svg>