<svg xmlns="http://www.w3.org/2000/svg" widht="50" height="50" fill="none" class="mb-2">
  <path d="M16 5.143A.857.857 0 0 0 5.143 6V21.43c0 .473.384.857.857.857h5.143c.17 0 .334.05.475.144l3.81 2.54v-1.827c0-.473.384-.857.858-.857h2.571a.857.857 0 1 1 0 1.714h-1.714v2.572a.857.857 0 0 1-1.333.713L10.883 24H6a2.571 2.571 0 0 1-2.571-2.571V6A2.571 2.571 0 0 1 6 3.43h28.286A2.571 2.571 0 0 1 36.857 6v8.572a.857.857 0 1 1-1.714 0V6a.857.857 0 0 0-.857-.857H6zM26.863 22.75a8.542 8.542 0 0 1 5.708-2.178c2.198 0 4.203.827 5.72 2.187a.857.857 0 1 1-1.145 1.276 6.829 6.829 0 0 0-4.575-1.75 6.828 6.828 0 0 0-4.566 1.742.857.857 0 1 1-1.142-1.278zM40.23 38.824a.857.857 0 0 1 1.21.063c1.19 1.32 2.001 2.923 2.265 4.686a.857.857 0 1 1-1.696.254c-.209-1.398-.856-2.698-1.842-3.792a.857.857 0 0 1 .063-1.21zM38.369 33.447a.857.857 0 0 1-.064 1.21 8.543 8.543 0 0 1-5.734 2.2h-.002c-.548 0-1.087.041-1.61.12-4.075.613-7.221 3.472-7.83 6.888a.857.857 0 0 1-1.687-.3c.635-3.57 3.424-6.473 7.053-7.738a8.594 8.594 0 0 1-1.636-1.15.857.857 0 0 1 1.143-1.278 6.828 6.828 0 0 0 4.568 1.744h.001a6.828 6.828 0 0 0 4.587-1.76.857.857 0 0 1 1.21.063z"fill></path>
</svg>